/* XPM */
static char *result[] = {
/* columns rows colors chars-per-pixel */
"64 64 229 2 ",
"   c #030100",
".  c #0B0101",
"X  c #0E0805",
"o  c #190803",
"O  c #1F120C",
"+  c #250B02",
"@  c #320F03",
"#  c #2E1507",
"$  c #3B1806",
"%  c #321B17",
"&  c #362218",
"*  c #3F2209",
"=  c #3A2D29",
"-  c #421D04",
";  c #461E09",
":  c #46230A",
">  c #582708",
",  c #572A15",
"<  c #4C2B18",
"1  c #682E09",
"2  c #6B3917",
"3  c #793816",
"4  c #64300C",
"5  c #573A25",
"6  c #613C28",
"7  c #7D4219",
"8  c #79462D",
"9  c #794D39",
"0  c #6D4833",
"q  c #745848",
"w  c #7B6F6A",
"e  c #853F14",
"r  c #80380B",
"t  c #8A4617",
"y  c #944B1A",
"u  c #A34A1A",
"i  c #A1541D",
"p  c #965537",
"a  c #8F522E",
"s  c #A75D2B",
"d  c #A75B36",
"f  c #9F692C",
"g  c #8A6237",
"h  c #A36B2C",
"j  c #A86F2E",
"k  c #A96429",
"l  c #A9712F",
"z  c #A36D31",
"x  c #A86E31",
"c  c #A96232",
"v  c #B96A35",
"b  c #A67235",
"n  c #AB7435",
"m  c #AB7638",
"M  c #AE7A3A",
"N  c #B17637",
"B  c #B27639",
"V  c #B47B3C",
"C  c #B97E3D",
"Z  c #B56428",
"A  c #C26934",
"S  c #CA783A",
"D  c #98734C",
"F  c #956F5B",
"G  c #977B59",
"H  c #8E6853",
"J  c #B16C4A",
"K  c #AB7C47",
"L  c #B17E40",
"P  c #B97F40",
"I  c #B8734F",
"U  c #AC6A57",
"Y  c #A67C56",
"T  c #BC785D",
"R  c #AA6B49",
"E  c #947D63",
"W  c #877D76",
"Q  c #897162",
"!  c #A37364",
"~  c #C57A51",
"^  c #C27E61",
"/  c #B6803F",
"(  c #BA803F",
")  c #9E805D",
"_  c #B68242",
"`  c #BC8543",
"'  c #BE8846",
"]  c #B3834A",
"[  c #BA874A",
"{  c #BE8A49",
"}  c #A5835B",
"|  c #AF8853",
" . c #BB8C52",
".. c #B58954",
"X. c #BD915A",
"o. c #AA814C",
"O. c #9A8569",
"+. c #948878",
"@. c #8D847C",
"#. c #A88964",
"$. c #B78766",
"%. c #BA966A",
"&. c #BF8B75",
"*. c #A7947B",
"=. c #AE8C75",
"-. c #C18645",
";. c #C18947",
":. c #C38C4A",
">. c #C98E4D",
",. c #C08748",
"<. c #C6904E",
"1. c #C9914F",
"2. c #C69251",
"3. c #CB9553",
"4. c #CE9856",
"5. c #CF9A59",
"6. c #C2925A",
"7. c #D09957",
"8. c #D19B59",
"9. c #D09756",
"0. c #C18E51",
"q. c #C98468",
"w. c #C19662",
"e. c #C39D6D",
"r. c #C09866",
"t. c #CC8E73",
"y. c #C6957A",
"u. c #D49272",
"i. c #C3A274",
"p. c #C5A87E",
"a. c #C5A77C",
"s. c #69849C",
"d. c #758595",
"f. c #7C8FA5",
"g. c #8A8B8B",
"h. c #9C9287",
"j. c #86909E",
"k. c #9C9B99",
"l. c #8D8B8F",
"z. c #A89888",
"x. c #A69D97",
"c. c #BAA484",
"v. c #ACA39A",
"b. c #B4A99C",
"n. c #8B9CAD",
"m. c #8395A7",
"M. c #808EA0",
"N. c #97A3AD",
"B. c #97AABB",
"V. c #9AABBB",
"C. c #9BA7B3",
"Z. c #8DA1B0",
"A. c #AAABA8",
"S. c #B5ADA7",
"D. c #A2AEB8",
"F. c #A4B1BD",
"G. c #A8B3BC",
"H. c #BBBAB8",
"J. c #B1B1AC",
"K. c #D39D84",
"L. c #D29784",
"P. c #C79680",
"I. c #C6AC85",
"U. c #C9AE86",
"Y. c #C4AF8A",
"T. c #C9B189",
"R. c #CAB997",
"E. c #CBBD9C",
"W. c #C3B393",
"Q. c #D7A88C",
"!. c #C7B2A9",
"~. c #D4BCAD",
"^. c #C3B8B1",
"/. c #E3BAA3",
"(. c #CEC3A5",
"). c #CCC7AC",
"_. c #D0CAAE",
"`. c #D0C6A8",
"'. c #CECCB3",
"]. c #C6C2BF",
"[. c #D1CEB4",
"{. c #D2D3BB",
"}. c #9EB2C4",
"|. c #9BAFC1",
" X c #A4B4C3",
".X c #A2B7C9",
"XX c #AABBCA",
"oX c #ACBAC7",
"OX c #B2BEC8",
"+X c #A7BDD1",
"@X c #B7C2CA",
"#X c #AEC2D3",
"$X c #AFC5D8",
"%X c #B5C6D2",
"&X c #BECBD3",
"*X c #BBCCDB",
"=X c #B7C7D7",
"-X c #BED0DE",
";X c #D4D8C2",
":X c #C2CDD6",
">X c #CAD1D5",
",X c #C4D2DC",
"<X c #C8D4DA",
"1X c #D7D8D9",
"2X c #CDCAC7",
"3X c #E7E0D9",
"4X c #CCDBE4",
"5X c #C6D8E5",
"6X c #D2DDE4",
"7X c #C1DEF3",
"8X c #CFE1EC",
"9X c #D5E3EC",
"0X c #DAE6ED",
"qX c #DCEAED",
"wX c #DEEDF6",
"eX c #DEEDF8",
"rX c #DAE7F1",
"tX c #E1E9EE",
"yX c #E1EEF6",
"uX c #E1EFF9",
"iX c #E3F1F7",
"pX c #E4F2FB",
"aX c #EAF5FB",
"sX c #EDFBFF",
"dX c #F3FEFF",
"fX c #FDFFFF",
"gX c #F2F4F5",
"hX c #E7F1EE",
"jX c #E6D8CC",
/* pixels */
"3.3.7.3.7.8.1.( :.>.:.>.:.:.;.( ;.;.;.` ` ( b { { ;.( B { :.{ { 2.2.>.2.2.<.{ C ;.` ;.' ;.' n n ,.;.,.<.[ m { ` ' ` :.;.( ;.N l ",
"3.3.7.3.7.5.<.( ;.>.:.>.1.;.-.( ' ;.-.( ( V N ;.;.' ` V :.,.:.:.2.>.2.3.>.>.:.C ' ' ' ;.{ { M z ' ' :.<._ M { { ` ` { ;.;.;./ l ",
"3.3.8.7.7.7.<.S >.>.;.>.1.-.-.( ' ;.;.( ;.N V :.' ' ( B ;.:.:.,.2.:.2.2.2.:.:.P ' ' ' ' [ { M z ' ' :.<./ M { ' ` ` { ;.( ;./ l ",
"3.3.7.7.4.8.:.C :.>.>.:.1.-.-.C ;.;.;.-.' n V { ;.{ ` B ' :.,.' 0.:.>.2.>.2.:._ ( ' ;.' ` { M b { { :.<./ / { ' ` ` ;.{ -.' / n ",
"3.3.7.7.4.7.-.( ;.1.:.1.>.;.-.C ;.;.( -.( n / { ;.;.` V ` ' ' ' <.,.2.2.>.:.2._ ( { { { { { M z ' ,.{ <.M _ { ' ( ` ;.;.( ;.( l ",
">.9.7.9.4.8.-.-.;.;.:.:.1.;.S C ( ;.' ( ' b / { ;.;.` B _ ' ,.' { { :.2.:.<.:.` / ' { ;.[ ` M z ' ,.:.{ M _ ' ' ' ( ;.;.-.;.( n ",
">.1.7.9.3.8.-.( 1.>.:.:.>.-.( ( ( ;.` ` ' n ` <.;.' ' B C ,.' ;.{ ' :.2.:.2.2._ / { { ' { [ N z ' ,.,.:.b _ { ' ` ` ;.` ( :.-.j ",
"-.1.7.9.3.8.-.C ;.;.;.:.:.-.( ( ' ` ' ` ' n _ { { ' ' B P { ` ,.,.` { >.:.2.:.P / ' { ' ' ' M f ` ' :.:.b [ { ' _ ` ;.;.-.:.( n ",
"` 3.7.3.9.9.-.C ;.1.;.;.1.-.( ( ' ` ` ` { b / <.' ` ' V C ;.` ;.:.' :.:.0.2.:.P L ' ' ,.` [ m f { { { { b ' { ' { ` ' ' ( :.( M ",
"( 3.3.9.7.8.-.C >.;.;.;.:.-.( ( ` ` ' ` { b ` { { ' ' V V ;.( ;.;.,.:.:.:.2.:.C _ ' ' ' { { M z { { { ' b { { ' ' ` ' ` ( :.( M ",
"_ 1.9.3.9.7.-.C ;.;.;.1.>.( N ( ` ` ` { { n / :.:.' ' C V ,.( ( :.,.:.:.:.2.0.C C ` ` ;.' [ B f ( {  .{ b [ [ ' ` ` ` ` ( :.( N ",
"` >.3.9.3.7.;.B 1.-.;.:.;.-.N ( ` ( ` ` { m / { ;.` ' ( N :.~ -.;.[ :.:.:.2.:.V C ' ' ' ' { V z { { { { b ` { { ` ` { ` ( :.( l ",
"P >.3.3.3.7.;.C :.;.;.:.;.-.N ( ` ( ` ' ' M _ :.;.' ' ` B ,.-.-.;.-.<.>.:.2.:.C C ' ` ,.' ' B b { { { 2.b _ [ { ' ` ;.` -.;.( n ",
"` >.3.3.3.4.;.C :.:.;.:.;.-.N ( / ` ` { ' M M { ;.' { ' B ,.P -.-.-.,.>.:.3.<.B P ' ` ' [ ' B z { { { 2.M _ { { ` ( ' ( ( ;.( j ",
"C >.3.3.3.7.;.V :.;.;.;.;.( N ( ` ` ` ' ' M V { ;.` [ ,.B -.-.-.;.-.:.:.:.3.<.V _ ` ` ' ,.' B n { { 2.2.L M ' ' ' ( ,.( C ;.( j ",
"P >.3.3.1.9.;.N <.;.;.;.;.-.l ( _ ` ` { { M M ,.' ' ;.;.B -.-.,.,.-.:.:.:.2.<.B ` ,.` ,.' ` M n <.{ 2.{ _ m { ' ' _ ,.` _ ;.( x ",
"` >.3.3.3.3.:.B ,.:.' ;.:.` N V ` _ ` [ { / m { ;.` ,.' V ` -.-.;.;.1.:.,.3.>.V ` ` ` ;.;.( M n { :.:.<._ / _ ' [ ( { { ( ' / l ",
"P >.3.2.3.3.,.B ,.,.' :.{ ' V B ` ` ` ` { / b { ;.` :.` V ` ;.-.;.,.:.:.:.1.>.B ` ;.` ` ;.( M M { <.{ 2.[ b _ ' ' ( ( ' ( ' / j ",
"C >.>.3.3.3.,.B ,.;.,.,.,.' N V ` ` ' { { _ m { ,.` ' ' C ` -.-.>.-.1.:.<.1.>.V ` ;.' ' ;.' n M :.:.<.<.{ / / ' ( { { / ( ` V h ",
"P >.3.3.1.9.;.B ;.' ;.;.{ ' B N _ ` ` { { { b _ { { ,.' C C ;.;.;.-.>.:.<.2.:.N ,.' ` ' ;.( l V :.{ :.<.{ / / { { ( ( { ( ' V h ",
"P :.3.3.3.3.,.B ;.;.{ :.{ { B M ' _ / ' { { / / { Q @.g.W D ,.:.>.-.1.>.<.1.:.V ;.-.` ;.' ( M N :.' <.<.:./ / ( ' ( ` ` ( ` V z ",
"` 1.1.1.3.3.,.B :.,.;.,.{ ' C B ' / ' ' { { b o.k.6XpXpX0XoX@.P :.>.1.:.<.3.-.V ;.,.;.;.;.;.M V :.:.:.<.:.{ b ( ' ` _ ` C ` V h ",
"P 1.2.3.2.3.:.B ;.' :.,.,.' C m / / { ' { { o.F.fXsXpXpXdXdX4Xj.X.>.1.>.1.1.-.C ;.;.,.;.;.( n N :.:.<.:.:.:.b / ' ` ` _ C ` V j ",
"[ >.2.3.3.3.:.B ' ;.{ ,.{ ' C N / ' ( ' { { d.sXpXwXyXyXyXuXsX8XM.{ <.<.1.1.( ( -.;.;.` ;.;.l / :.:.:.:.<.:./ / ;.( ' _ C _ C z ",
"[ :.3.3.3.2.[ C ,.,.:.{ { { _ N / { { { { } @XdXwXwXwXwXwXwXpXsX*Xl.3.1.1.3.( ( ;.;.;.;.;.-.l / >.:.:.:.:.<.V M ' ( ` _ / ` / f ",
",.:.3.3.3.3.' C ,.:.:.,.{ { ` V / ( { ( { O.8XsXwXwXwXwXyXwXwXpXuX.X*.<.<.1.( ( ;.;.-.;.;.-.l / :.:.:.:.<.:.` m ;.( ' ` / ( / b ",
"{ >.3.5.4.2.` P ,.>.{ ,.:.{ ' C / { { ' { *.,XsXwXwXiXwXwXwXwXwXdX4Xm.2.1.1.( ( -.;.;.;.;.-.l ( ;.>.:.:.:.:.' b ( ' ( ` / / / f ",
">.2.4.5.3.2.` P :.:.,.:.:.{ ' C / ( ( { ` O.9XsXwXwXwXwXyXwXwXwXpXrX=Xx.3.3.( C -.-.>.;.>.-.N ( :.:.,.:.>.:.:.n / ( ( ` / ` _ f ",
"2.2.3.5.3.3.` C ;.:.;.:.<.:.` _ / / ( <.{ ) 9XsXiXwXwXyXwXwXwXwXwXdX-XB.6.3.` V ;.:.:.>.:.-.n / 1.1.:.:.:.:.:.m M ` ` ( _ ' ( z ",
"2.3.5.7.3.3.>.C ;.{ :.:.<.:.` ( / / { { ( | oXdXwXwXwXyXyXwXwXyXeXaX4X#X*.3.>.B ;.>.;.;.<.;.N V 1.:.:.:.>.:.:.N N w.a.p.p.p.i.b ",
"6.3.5.7.3.3.4.C ' ;.;.;.{ :.` C / ( ( ( { O.Z.sXwXwXyXwXwXwXwXyXwXeXaX*XC.3.>.N ;.;.;.:.:.-.( n :.:.>.;.:.:.:.B m U.[.{.[.'.'.b ",
">.4.3.5.3.3.3._ ` ;.{ :.<.{ ` M / ( { O.d.s.Z.aXiXwXwXwXwXiXiXwXyXeXdX:XV.%.>.C -.;.;.:.:.;.;.l :.1.>.;.:.:.:.M n ` X.[.p.I.'.z ",
"_ 4.4.5.7.3.3._ ' :.{ :.<.:.( N / ` _ d.7X}.d.,XsXwXwXwXyXuXwXwXwXwXpX9X#Xx.<.( ( ;.;.;.:.;.( l <.1.:.;.:.:.;.n V e.{.;XR.R._.b ",
"] 4.4.4.9.3.9._ ' ,.<.,.{ { / m ( _ ' g.5X5Xm.%XdXwXyXwXyXwXwXwXyXwXwXpX5X X>.( ( ;.>.;.>.-.-.l <.<.>.:.:.:.:.n / R.R.i.[.[.e.m ",
"[ 3.4.5.9.3.5.` ` ,.{ :.{ { C N _ ` ` b.qXqX}.B.dXwXwXyXwXwXwXwXwXwXyXdX5X}.$.( ( >.;.;.1.-.( N :.<.:.;.<.;.:.n V 6.( ( _ ' ' n ",
":.2.4.8.3.3.3.,.C :.<.:.{  .M N ` ( ` z.fXdX9Xn.wXpXwXwXwXwXwXpXaXdXaXwXF.#X*.( ( >.;.;.:.-.( N >.>.;.>.<.;.;.b ( ` %.E.(.U.( b ",
":.>.3.5.3.4.3.0.C ' :.:. .{ M V _ _ ` z.dXpXpXV.-XdXwXwXpXsXdXyX<XD.G.D.j.=Xz._ ( :.;.>.:.( V V ;.1.:.;.>.;.;.b ( r.{.(.E.{.I.z ",
"{ 2.3.5.3.3.2.3._ _ :.,.{ { V N ( ` ` c.aXpXrXV.%XdXsXaX0X:XG.C.N.G.:XtXgX<Xv.C ( ;.;.;.:.;.V N ;.:.:.;.>.;.' b ` R.(._ _ I.[.f ",
"0.:.3.4.3.4.3.2.` P >.{  .<.B B _ _ ` O.dXpXrX#XXXqX:XD.N.D.@X6XdXfXfXfXfXfX@.N ;.:.;.;.:.-.N N :.>.:.:.:.:.' m ' R.E._ _ a.[.z ",
"2.:.2.3.3.4.3.2.{ C :.,.{ { B n ( ` ` *.yXpXrX-XV.C.F.oX0XdXfXfXfX3X^.A.J.h.9 M ( ;.;.;.:.( n C >.;.:.;.:.<.' b ` e.;XR.I.'.W.b ",
">.:.2.3.3.3.4.0.;.C :.:.' { B m _ _ ` ) qXpXuX$X XOXfXfXfXfXfX3Xv.q = & * * # : g ( ( ' ;.( n C <.;.{ <.2.{ ' b ` ` U.[.[.R.n z ",
":.1.2.3.3.4.3.1.,.C ,.:.{ { C M _ ( ` ) rXsX,Xf.s.V.fXfXgXaXyXz.&     + : 3 t $ : 0 / :.,.-.j C ;.:.:.<.<.{ / b ' %.p.p.p.p.%.h ",
">.1.3.2.3.5.4.2.:.V ,.,.{ { _ B _ / ' | 9XdXD. Xm.B.sXpXwXeX0Xq   . . $ y v S i $ * 5 M -.C b ( ;.:.{ <.{ 2./ / ;.T.[.{.[.[.'.f ",
":.:.3.3.0.5.3.>.<.C ,.:.{ <._ B ` ` ' o.qXsX@X@XB. XpXdXdXyXH.#   . + t v s Z v k 2 * 7 d ( h ( ;.{ { <.{ <.b / ( ( X.[.p.p.'.f ",
":.:.3.3.3.5.3.2.>.B ,.,.{ :._ M _ _ '  .6XdX1Xd.M.@XsXoXm.n.].O   . 2 v J s Z s i S v 7 u =.D ( ;.;.:.:.<.{ b ` ' e.{.;XR.R.(.f ",
">.>.3.3.3.8.3.>.1.C ,.,.:.,.' B _ _ ' ] *XdXsX9X4XyXj.n.:XV.z.O o : p ~ J J c , : 7 A ~ h T aX@.[ :.{ <.<.;.b ` ' R.R.i.'.[.| h ",
":.>.3.2.3.8.5.>.:.B ' :.:.{ ' B _ { { { @XdXwXaXdX%XM.9XfXpX+.X ; R ^ T T I p @ # y Z s c H hXfXOXX.;.<.<.{ b ` ` X.%.E.(.c.f h ",
">.,.3.3.3.8.3.2.P _ ' :.,.{ ' V / ' [ { A.dXwXeXdXXXC.@XOXfXA.. a Q.L.t.u.T I e t 3 y y 7 > *.qXfXz.{ <. .' b ` ' 6.{.(.(.{.a.h ",
">.>.3.3.3.7.9.>.C ` ;.,.:.' ,.V / ` ' { J.dXwXeXpXyXV.&XG.n.<X# q /.L.L.&.0 p ^ v u 1 + > 1 : R.jXz.:.>.2.( / / ' R.(./ / U.'.h ",
">.:.3.3.3.7.9.,.P ,.;.,.:.;.,.C / ` _ { v.dXwXwXsXyX+XoXaX&XN.h.# F P.Q.H % e L.^ a @ ; ; ; - i %.Y :.:. ._ b [ ( R.(./ ( p._.h ",
">.>.9.3.3.3.9.-.P :.,.,.;.;.;.C C ` ' { z.fXwXwXaXaX5X.X}.fXdX*XQ < 6 P.! p d ^ ^ , ; 3 y 1 # R x...:.<.{ / m { ' e.;XR.U.[.c.l ",
">.>.9.>.9.3.9.C ` ,.,.:.;.,.,.C C ` ' ;.*.dXeXwXyXdXpX8X}.F.iXaXaXS.6 6 L.^ ^ ^ U @ 3 p > $ % !.b.{ :. .{ / / [ ' ( T.{.[.R.h l ",
">.>.3.3.9.9.9.C -.;.;.:.,.;.:.C ` ` ` ' O.sXeXwXyXaXuXaXrX}.V.aXaXyX1XQ 9 P.P.P.^ < a T , : w :X .' { <.<./ M _ ' ' ' ' ( { h j ",
"3.1.9.9.4.7.3.V -.;.>.:.:.;.:.B ( ` ' ;.#.wXpXeXyXiXeXyXeXeX XV.aXsXwXuXU ! T H U p 6 6 o = ;Xz.;.{ { <.{ / / ' ( ( e.(._.T.h j ",
">.3.9.3.4.5.3.V -.;.:.;.:.-.;.C ` ` ' ' #.eXpXeXyXiXyXrXrXuXsX*XV.4XdXuXuX1X~.v.l.W ! 6 5 H.k./ { :.{ {  ./ / ' { X.{.`.E.{.p.z ",
"3.1.9.9.4.8.3.C -.:.;.;.>.-.:.V _ ' ' ' | 9XsXeXyXyXtXrXeXuXuXdX5XV.%X0XgXgXuXuXpX,X>X~.~.z.f M ' ;.<.<.<./ M _ ' E.`.' ( Y.'.l ",
"3.3.7.7.7.7.1./ -.;.>.;.>.-.;.C ' ' ' -.] 9XaXwXwXpXyXwXeXwXyXwXaXuX*X XoX&X6XrX9X9X<XH.} ` h / ( { <.{ { / / ( ( E.(.( ( T.[.l ",
"1.1.7.7.3.7.3.S -.:.;.:.>.;.;.B ( -.( ;.{ <XsXwXwXyXyXyXyXwXwXwXuXpXaXwX,XXX%X%X#X-X6XD { { h M <.{ <.<. ./ / { ' i.{.3.' _.W.l ",
"1.3.8.7.7.7.9.N -.;.;.:.>.;.>.N ( ;.` -.' <XfXpXpXaXpXwXwXwXyXwXyXwXyXuXsXsXuXeXwXpXdXG ' ` b / ( <.<.{ 2./ ( { ( R.`.i.( X.n l ",
"3.3.8.7.7.7.7.N -.>.>.>.>.-.;.C -.;.` ` ' } <XdXsX9XsXdXuXwXwXwXwXwXwXwXwXeXeXuXyXpXsX) { { n M ( <.{ { { / ( { { w.`.;X_.T._ l ",
"3.7.7.7.7.7.7.( ;.>.>.>.1.;.;.C ;.' ' -.' ` K D Y K O.@XfXdXwXwXwXwXwXwXwXwXwXyXwXuXsX) { { / b <.( <.<.<./ / { -.-.p.{.E.{._.l ",
"3.7.7.7.8.8.3.( ;.1.;.;.1.;.-.( ;.,.' ` ' ' L n ' ' ` m E >XfXdXwXwXwXwXyXwXwXwXwXwXpX#.{ { l l ( <.<.<.{ m / ( -.;.T.{.{.{.Y.l ",
"3.7.7.7.7.8.>.( :.>.>.1.1.;.;.( ` ;.-.` ` ` n C ;.` ` B ;.[ z.<XfXdXwXwXwXwXwXuXwXrXpX%.{ ( / j { ( <.<.{ m ' ;.;.p.{._.U.<.n n ",
"3.3.7.7.7.7.1.( :.>.:.1.1.;.;.S ;.;.-.` -.P b ' ;.,.` B ;.:.:.[ +.6XfXsXeXwXyXwXwXsXsXX.{ { l / <.<.{ 2.{ / ' ( ;.U.a.{ ' ' n l "
};
