/* XPM */
static char *bb5805c60b6648a0c3da318753044eb1buoz2oCIKVVnWR0D[] = {
/* columns rows colors chars-per-pixel */
"64 64 233 2 ",
"   c #1C1B16",
".  c #1D1E1B",
"X  c #151713",
"o  c #10110D",
"O  c #211D16",
"+  c #1C241C",
"@  c #22231D",
"#  c #29271B",
"$  c #28251A",
"%  c #2B311E",
"&  c #3B3117",
"*  c #17382B",
"=  c #1F2423",
"-  c #242421",
";  c #262925",
":  c #2A2A24",
">  c #262C2A",
",  c #2A2D2B",
"<  c #2C312E",
"1  c #21362A",
"2  c #31332C",
"3  c #3B382A",
"4  c #2D3432",
"5  c #2F3835",
"6  c #2A3A3A",
"7  c #313634",
"8  c #333936",
"9  c #393B36",
"0  c #343C3A",
"q  c #3A3E3B",
"w  c #302F22",
"e  c #572E15",
"r  c #57331B",
"t  c #452715",
"y  c #673319",
"u  c #763918",
"i  c #612D12",
"p  c #473C29",
"a  c #5A3824",
"s  c #683C25",
"d  c #713E24",
"f  c #36403F",
"g  c #3B433C",
"h  c #79411F",
"j  c #464536",
"k  c #564A37",
"l  c #4A442C",
"z  c #674429",
"x  c #794928",
"c  c #694B34",
"v  c #784C34",
"b  c #6B543C",
"n  c #7A5438",
"m  c #3A4544",
"M  c #3C4B4B",
"N  c #374545",
"B  c #37534A",
"V  c #3B5451",
"C  c #3E4F50",
"Z  c #326350",
"A  c #3D7361",
"S  c #414E4D",
"D  c #425353",
"F  c #445A5A",
"G  c #52594B",
"H  c #7E5F45",
"J  c #655841",
"K  c #59684A",
"L  c #496957",
"P  c #436B54",
"I  c #7D6149",
"U  c #706957",
"Y  c #6F6B52",
"T  c #485F60",
"R  c #4B6967",
"E  c #526665",
"W  c #477569",
"Q  c #657C7A",
"!  c #83421C",
"~  c #854826",
"^  c #8C532C",
"/  c #99562E",
"(  c #845335",
")  c #975A34",
"_  c #8C4E31",
"`  c #A45E39",
"'  c #A64D3D",
"]  c #9E672B",
"[  c #99663C",
"{  c #8F6B3C",
"}  c #A36B2D",
"|  c #A76D2C",
" . c #A9712F",
".. c #A36D31",
"X. c #A66737",
"o. c #A67235",
"O. c #AA7435",
"+. c #AB7638",
"@. c #AE7A3A",
"#. c #B17637",
"$. c #B27639",
"%. c #B47B3C",
"&. c #B97E3D",
"*. c #895D42",
"=. c #995C44",
"-. c #B65F4A",
";. c #896547",
":. c #966849",
">. c #9A764C",
",. c #856C51",
"<. c #997658",
"1. c #906F53",
"2. c #A66641",
"3. c #B16A48",
"4. c #AB7B49",
"5. c #B47F41",
"6. c #B97F41",
"7. c #A57956",
"8. c #BF7055",
"9. c #997E66",
"0. c #8B7F6A",
"q. c #A57963",
"w. c #B27E61",
"e. c #C37759",
"r. c #CC7B69",
"t. c #538872",
"y. c #7D8071",
"u. c #B6803F",
"i. c #BA813F",
"p. c #998059",
"a. c #B68242",
"s. c #BC8443",
"d. c #BE8846",
"f. c #BB864A",
"g. c #BE8A49",
"h. c #B58448",
"j. c #AA8557",
"k. c #B88C58",
"l. c #9B8469",
"z. c #90917F",
"x. c #A88869",
"c. c #B48A6C",
"v. c #A88974",
"b. c #A79578",
"n. c #B89678",
"m. c #B98E70",
"M. c #C18745",
"N. c #C18645",
"B. c #C08947",
"V. c #C18947",
"C. c #C18A49",
"Z. c #C18C4B",
"A. c #C68D4A",
"S. c #C58E4D",
"D. c #C38C4A",
"F. c #C98E4D",
"G. c #C08748",
"H. c #C6904E",
"J. c #C5904E",
"K. c #C9914F",
"L. c #C28E52",
"P. c #C38C58",
"I. c #C69252",
"U. c #CC9553",
"Y. c #CE9856",
"T. c #C4945C",
"R. c #CF9A59",
"E. c #D09957",
"W. c #D19B59",
"Q. c #D09756",
"!. c #C48365",
"~. c #D28A6C",
"^. c #C69A68",
"/. c #C79878",
"(. c #D39B7E",
"). c #D9987A",
"_. c #C28373",
"`. c #CBA16F",
"'. c #CBA57A",
"]. c #6CB79B",
"[. c #9E8A82",
"{. c #818D86",
"}. c #A99486",
"|. c #B69B86",
" X c #AB9C94",
".X c #B88F80",
"XX c #93A481",
"oX c #B8A799",
"OX c #BCA78B",
"+X c #B8AAA5",
"@X c #BDB3AE",
"#X c #C89B88",
"$X c #D69D8A",
"%X c #C6A787",
"&X c #DCA687",
"*X c #D1B18B",
"=X c #CAA995",
"-X c #D6A998",
";X c #D3B497",
":X c #E5A78A",
">X c #E8AC91",
",X c #EAB59C",
"<X c #F5BA9D",
"1X c #F1AE90",
"2X c #C1B2AC",
"3X c #DAB8A5",
"4X c #C9BAB2",
"5X c #D7BDB0",
"6X c #C3AFA6",
"7X c #E8B9A7",
"8X c #F4BCA7",
"9X c #F0B6A9",
"0X c #CCC2B9",
"qX c #D7C5BA",
"wX c #DBC2A8",
"eX c #E9C3AA",
"rX c #F6C3AB",
"tX c #FAC6AC",
"yX c #E5C2B3",
"uX c #E9C9BA",
"iX c #F6CAB7",
"pX c #FCD3BC",
"aX c #F7D1BC",
"sX c #D6CAC4",
"dX c #DED4CC",
"fX c #F3CFC0",
"gX c #E8D3C8",
"hX c #FBD7C6",
"jX c #E6DBD5",
"kX c #EBCFC1",
"lX c #F8E4D7",
"zX c #EEE7E5",
"xX c #F7EFEB",
/* pixels */
"U.U.R.U.E.W.K.&.D.A.A.S.S.D.V.&.V.V.M.s.s.&.o.C.V.s.s.$.C.C.C.C.I.H.H.U.K.H.C.&.V.s.d.s.C.d.+.O.M.V.D.H.s.+.D.s.M.s.C.V.s.V.+.o.",
"U.U.Y.U.E.R.H.&.A.A.A.H.U.C.M.i.d.M.s.s.s.$.+.C.V.s.s.$.C.C.C.C.I.H.I.U.S.S.S.&.d.s.g.s.g.g.$...s.g.D.H.a.@.g.s.s.s.V.C.s.V.$.o.",
"U.U.W.Y.E.W.A.&.A.K.A.A.U.D.M.&.V.G.V.s.V.+.%.D.V.s.s.$.s.D.D.C.I.S.S.U.H.S.S.&.s.d.g.s.f.f.$...d.V.D.H.%.@.D.d.s.s.C.M.s.C.%.o.",
"U.U.W.Y.Y.W.D.&.A.S.A.A.H.V.M.%.V.V.s.s.s.O.%.C.C.V.s.$.s.C.C.g.S.D.S.U.S.S.S.s.s.d.C.s.f.g.@...g.V.D.S.a.%.g.d.s.s.C.d.s.C.&.+.",
"U.U.W.Y.Y.W.M.s.A.A.A.A.H.M.s.&.s.V.s.s.s.O.u.V.C.M.s.$.s.d.g.d.S.C.H.I.S.S.S.s.s.s.C.s.g.f.@...d.V.D.S.@.%.C.d.s.s.V.V.s.s.i.o.",
"S.U.E.U.U.W.N.s.D.D.A.A.H.V.s.$.s.d.s.s.s.o.&.D.C.V.s.$.s.s.V.s.C.s.S.I.S.S.S.s.s.V.g.d.f.d.@...s.C.D.D.+.a.d.s.s.s.V.V.s.V.s.o.",
"A.K.W.U.U.W.M.s.A.A.D.A.A.M.s.&.s.s.s.s.s.O.s.S.C.s.s.$.6.s.s.d.g.s.D.I.S.H.S.s.s.d.g.s.g.f.+.} s.g.C.D.o.s.g.s.s.s.C.N.s.V.s.| ",
"C.U.R.U.U.W.s.&.D.D.D.A.S.N.s.i.s.s.s.s.s.+.s.C.g.s.s.$.6.g.s.d.C.s.D.S.S.S.S.6.u.d.C.s.s.f.$.} s.g.D.S.o.d.g.s.s.s.C.M.s.V.s.O.",
"s.U.Y.U.U.E.M.&.D.A.C.C.A.N.&.&.s.s.s.s.s.O.s.D.C.d.d.$.%.g.s.V.C.s.D.S.S.H.S.&.&.s.g.d.s.g.#.] s.g.D.g.o.g.g.s.s.s.d.s.s.C.s.O.",
"s.U.U.U.Y.W.M.&.D.A.C.C.D.N.%.i.s.s.s.s.g.O.s.D.C.d.d.&.%.d.s.M.C.C.D.D.D.I.S.%.i.s.d.d.d.d.$...s.d.S.d.o.g.d.s.d.s.V.s.s.D.s.+.",
"s.K.U.U.U.E.M.&.A.C.D.C.A.s.$.s.s.s.s.d.d.O.s.C.C.s.s.&.$.C.s.s.C.C.S.C.S.I.S.%.i.s.s.s.s.g.$...s.g.S.g.o.f.f.s.s.s.s.s.s.C.s.+.",
"s.F.U.U.U.W.C.$.A.V.V.C.C.s.$.i.s.s.s.s.d.+.u.C.C.s.d.s.$.C.s.s.V.s.S.S.D.I.S.%.6.s.s.d.s.g.%...d.g.S.g.o.s.g.g.s.s.s.s.s.C.s.O.",
"s.F.U.U.U.Y.V.$.A.C.V.C.C.s.$.&.s.s.s.s.d.@.a.C.C.s.g.s.#.C.s.M.V.s.S.S.D.I.S.%.&.s.s.s.d.d.$...g.g.S.S.+.a.d.g.s.s.s.s.s.d.s.o.",
"s.F.U.U.U.U.C.$.C.C.V.C.D.s.$.&.s.s.s.d.g.@.%.C.d.s.C.s.$.M.s.M.M.N.D.S.D.U.S.$.s.s.s.s.g.d.$.o.g.g.S.J.@.5.g.d.s.s.s.s.s.V.i. .",
"s.F.U.U.U.Y.C.$.D.C.M.C.C.s.$.%.s.s.s.d.d.@.@.C.d.s.g.s.$.s.s.M.C.s.A.A.S.U.H.$.s.s.s.d.g.d.$.O.g.g.S.J.5.@.d.g.s.i.d.s.&.d.i. .",
"s.F.U.U.U.U.C.$.C.C.d.C.C.s.$.%.s.s.s.d.g.%.@.C.d.s.C.d.#.M.M.M.V.s.S.S.A.U.S.$.s.s.s.s.d.s.@.O.g.C.S.H.a.+.g.g.s.s.s.s.s.d.&. .",
"s.D.U.U.U.U.C.$.C.C.d.C.C.s.#.%.s.s.s.d.g.%.+.g.g.s.C.s.$.s.M.M.C.M.S.A.A.U.S.$.s.s.s.d.d.s.+.+.D.C.S.I.s.+.d.s.s.s.d.s.i.s.i...",
"s.A.U.U.U.U.C.$.M.C.s.C.C.s.$.$.s.s.s.d.g.a.O.g.d.s.C.s.$.s.V.M.C.M.S.S.A.U.S.$.s.s.s.s.d.s.+.+.D.C.D.H.g.o.s.s.s.s.s.s.s.s.&...",
"s.D.U.U.U.U.C.$.C.V.C.C.D.d.#.$.s.s.s.d.d.s.o.g.g.s.d.s.&.s.V.V.D.V.H.A.A.U.S.$.s.V.s.s.d.s.O.$.C.C.D.H.S.O.&.d.s.s.d.s.s.s.$...",
"s.D.U.U.U.U.M.$.V.M.M.V.g.d.$.$.s.s.s.d.d.g.o.s.g.L.C.C.s.s.V.V.C.M.S.A.S.I.S.$.V.s.s.d.s.s.O.$.D.C.S.H.S.@.%.g.s.s.s.s.i.s.$.| ",
"s.A.U.U.U.U.M.$.C.V.C.C.g.g.$.$.s.s.s.d.g.g.5.h.^.'./.^.P.f.L.I.A.M.H.S.S.K.C.$.V.s.s.d.s.s.O.$.D.C.S.S.S.&.@.d.s.s.s.s.&.s.%...",
"s.F.U.U.U.U.V.$.C.V.C.C.g.d.$.$.s.a.d.d.g.T.n.%XoX}.}.oX|.|.OX;X`.L.K.H.U.U.N.$.V.V.V.M.V.s.+.$.D.C.S.S.S.s.O.s.d.s.s.s.&.s.$.} ",
"s.K.U.U.U.U.C.$.V.d.C.C.C.d.&.$.s.s.s.d.d.`.4XoX+X}. X4XsX@X}.|.n.%XT.S.H.U.s.&.V.V.V.V.V.s.O.$.A.C.S.S.S.S.o.s.s.s.s.s.&.s.$.| ",
"s.S.U.U.U.U.C.$.V.C.C.C.g.d.&.+.s.s.s.d.T.0X X X[.}. X2XjXzX0X|.m.x.c.^.^.^.s.s.M.V.M.s.V.s.O.&.D.D.S.A.S.S.@.&.s.s.s.s.&.s.&...",
"s.C.U.U.U.U.s.&.C.C.D.V.g.d.s.$.u.s.d.d.qXoX+X@X[.|.5XgXqXqXsX2X|.v.<.x.%X%X^.s.V.V.V.V.C.s.O.&.A.A.A.A.S.S.%.@.s.i.s.s.&.s.&...",
"s.D.U.Y.U.U.s.&.C.C.C.C.D.g.s.$.&.s.d.^.qX+XsX+X=X8XrXrXeX3XqXsXoXn.<.<.v.=X=Xk.V.C.M.V.V.s.O.&.D.S.A.D.S.A.s.+.s.s.s.s.&.s.&...",
"C.S.U.Y.U.U.s.s.C.D.C.C.D.g.s.&.%.s.g.*XsX@XjXqX8X<X<X1X:X&X-X5X6X}.v.x.7.c.n.s.M.V.V.V.A.N.O.&.V.A.D.D.A.C.V.o.s.s.s.s.s.s.u.] ",
"S.U.U.R.U.U.s.s.C.D.V.D.S.D.s.&.%.s.g.wXsXsXxXfX8XrX<X,X:X).)./.n.q.v.I 1.j./.&.V.V.C.D.A.s.O.&.A.S.D.D.A.D.D.O.&.s.s.s.&.s.&...",
"I.U.U.R.U.U.s.&.C.D.C.A.S.S.s.s.%.s.T.qX0XzXxXrXiXpXrX<X>X&X&Xe.3.2.:.;.H 1.c.f.C.C.D.V.A.N.+.&.H.S.A.D.A.D.C.+.@.s.s.s.s.s.u...",
"I.U.U.W.U.U.S.&.V.V.C.D.S.S.s.i.$.s.*X3XjXxXlXiXhXpXrX<X>X>X(.!.` ` / 7.<.<.9.c.C.A.V.C.H.M.@.&.S.S.S.D.S.C.A.+.@.s.s.s.s.s.s.o.",
"U.U.Y.Y.U.U.U.$.s.d.V.C.D.C.s.&.&.s.^.*XzXjXfXhXlXlXiX1X>X>X&X~.X./ ) >.x.v.9.x.L.D.V.A.S.M.s.O.A.S.D.C.C.D.A.$.O.s.s.a.s.s.a.o.",
"S.Y.U.R.U.U.U.s.s.V.g.C.D.D.s.$.i.s.T.*XzXuXhXiX#X|.#X).$XrX>XP.X.X.) :.x.v.l.1.g.D.V.A.A.M.s.o.A.H.A.D.D.D.S.@.O.s.s.s.s.s.s...",
"s.Y.U.R.Q.U.U.s.s.C.C.C.S.C.&.$.s.s.g.*XjXuXhX-Xn.w.7._.&X(.:.z r x ) ^ ;.x.|.;.s.D.D.C.C.V.d...A.K.A.C.C.C.C.O.%.s.s.s.s.s.s.o.",
"h.U.Y.R.U.U.U.s.V.C.D.C.S.S.&.+.s.s.g.*XjXyXaX,X,X<.3.(.7Xx v ;.s e ( ^ z l.}.j.i.A.V.A.S.M.s.O.A.S.D.D.C.D.D.O.&.s.s.s.s.s.s.O.",
"f.U.U.R.U.U.U.s.s.C.S.C.g.g.&.$.s.s.P.'.gX7XpXeX3Xa / &X>Xi c k a y x ) z ,.n.&.i.A.V.V.H.M.i.+.A.S.S.D.S.C.A.O.&.s.s.s.s.s.s.+.",
"g.U.U.R.U.U.U.C.&.C.S.V.g.g.$.$.s.s.g.T.uXuXpXpXhX:X~.tX~.u x :.( x ) X.n I c.&.s.C.V.V.A.N.&.#.S.S.D.D.A.C.C.o.i.s.s.s.s.s.s...",
"D.K.U.R.U.U.U.S.&.s.S.C.g.g.$.$.s.s.s.`.9XuXhXpXtX1XtX8Xe.^ ~ 2.X.X.X.) ;.n J.&.i.V.C.D.A.N.%.$.A.S.C.V.A.D.C.o.i.s.s.s.&.s.a.} ",
"C.S.U.R.U.U.U.U.s.s.D.D.g.g.$.$.s.s.s.`.aXuXhXhXpX8XtXiXe./ ! / 3.X.2.[ ;.~ A.%.s.V.V.V.A.M.%.#.V.A.C.C.C.C.s.o.s.s.s.s.a.s.u.} ",
"S.S.U.R.U.U.U.U.s.6.S.C.g.g.+.$.s.s.s.L.wXhXiXhX:X8.>X9X) ~ i ~ / ^ [ ;.) 3.C.$.V.C.M.V.D.s.$.$.D.S.A.C.S.D.s.+.s.s.s.a.&.i.$...",
"H.D.U.U.U.U.U.I.C.&.S.C.g.g.$.+.s.s.s.d.S.uXiX7Xe.$X-Xm.s e y y ~ ^ [ :.X.7.M.%.V.V.V.V.C.s.+.&.A.A.D.C.S.S.s.o.s.s.s.s.&.s.+...",
"S.S.U.U.U.U.U.H.V.%.D.C.d.g.$.+.a.s.s.d.g.3X7X-X=X.X$X_.( a r r x x :.:.I S.i.i.M.V.M.s.V.i.O.&.D.C.D.C.S.S.s.+.s.s.s.a.&.s.O...",
"S.U.U.U.U.Y.U.H.C.%.C.C.C.g.&.$.s.s.s.d.g.;XyX7Xq.$X9Xr.' s t a ( x :.>.:.U.&.s.V.V.V.V.V.s.o.&.C.C.D.S.S.S.&.@.s.s.s.s.&.s.| } ",
"S.H.U.U.U.R.U.F.A.$.V.C.g.g.&.$.a.s.d.g.g.'.yX=Xw.pX7Xn.=.d e c *.n 7.P.U.K.%.s.V.V.V.M.C.i...s.C.C.C.S.S.S.@.%.d.s.s.s.&.s.} } ",
"D.A.U.U.U.Y.U.K.S.%.d.C.g.D.s.+.s.s.d.g.g.f.sX=XyXiX7X-X:.d v n n *.x.4.S.S.$.s.V.s.s.d.d.i...s.C.V.C.D.S.S.+.&.s.s.s.s.&.s.} } ",
"A.D.U.U.U.R.U.U.S.%.s.C.C.C.s.$.h.s.s.g.g.a.k.kXgXhXfX#Xq.*.:.c b ,.:.& >.A.$.s.C.s.s.d.s.&.} i.C.V.C.S.S.S.O.a.s.s.s.s.&.s.] } ",
"A.D.U.U.U.W.U.S.K.%.s.C.D.C.s.$.a.s.d.g.g.a.+.'.dXgXqX}.0.,.H c b n ~ & K >.&.s.V.V.s.s.g.s.} &.d.C.C.S.S.D.o.s.s.s.d.s.&.u.] } ",
"S.A.U.U.U.R.U.S.C.%.s.C.C.C.s.$.a.s.g.g.g.a.+.XXdXsX4X[.Y b c z x h u 3 % p [ s.V.s.s.s.d.s.} &.g.V.C.S.S.d.o.s.s.s.s.s.i.5.] | ",
"A.D.U.U.U.R.U.U.6.s.d.C.C.V.d.$.u.s.d.g.g.a.XXP oXkX5X9.b c z s u u & % $ # 3 n h.s.s.d.d.&.} &.g.g.C.S.S.s.O.s.s.s.d.s.i.&.} | ",
"S.F.U.U.U.W.U.S.%.s.V.C.C.s.V.$.u.s.g.j.>.U t.L v.7X3X*.v n v ~ u l +   O $ # w l { 5.s.g.i.} &.C.C.C.S.H.s.+.s.s.s.s.s.s.u.} | ",
"S.S.U.U.U.R.U.M.&.C.M.C.C.C.C.5.j.x.G 7 4 W t.g c.9Xm.v =.3.-.:.K 1 o     # # # w 3 p { s.s.} s.D.g.D.S.S.s.o.s.s.i.d.s.&.s.} } ",
"F.F.U.U.U.R.U.s.&.C.V.C.C.V.T.J 7 > - > 8 W ].P z.).).(.(./.0.L * o . @ : @ @ @ , 2 3 j J 4.] s.D.g.D.S.J.a.+.d.s.i.s.s.s.s.} | ",
"S.F.U.U.U.R.Y.6.s.C.V.C.C.C.U = 7 , 8 4 N t.B 1 A J OXY D Z * X   @ , < @   ; 2 7 8 9 0 9 k { %.g.d.C.S.S.a.+.d.s.s.s.s.s.s.} | ",
"K.F.U.U.U.Y.U.&.s.V.V.C.C.b.6 : M < ; > 0 L o , , V Z * + . - > 4 7 7 ; + , 0 9 9 q q g 9 8 3 b D.g.D.S.S.%.@.d.s.s.s.s.s.s.} | ",
"U.U.E.U.U.W.U.%.M.C.D.C.T.E N q q S 7 , > 4 4 D D N M M q q q 0 7 7 ; ; 7 9 9 9 q q q q q 8 : 3 ,.d.S.S.J.%.@.d.s.s.s.s.s.d...| ",
"U.U.U.U.Y.W.U.$.M.A.C.C.b.M f F 7 M D M 0 7 m N M N m 0 0 7 7 0 7 , < 7 0 0 0 0 0 0 0 q 0 , 0 2 3 >.D.S.S.%.@.s.s.s.V.s.s.V... .",
"U.K.Y.U.U.W.U.$.s.A.C.C.y.C 0 M D 4 D D D m 0 7 0 0 0 0 7 0 0 7 7 7 7 7 7 7 7 0 0 0 0 g < 0 : ; # k D.S.J.%.%.s.s.i.C.s.s.V.o.| ",
"U.U.W.Q.U.W.U.%.M.C.D.L.E C N N D M 8 M D S N f 0 q 0 7 7 7 7 7 7 7 7 7 7 7 7 7 0 0 g 4 , > ; ; @ : p.S.H.%.%.d.s.s.V.s.s.V.o.| ",
"U.K.W.E.U.W.U.%.M.A.D.k.M M N N N D M 0 M D M m q f 0 0 7 7 7 7 7 7 7 4 7 7 7 5 7 7 7 - ; ; , ; @ @ j k.H.@.%.d.s.s.V.M.s.V.O.| ",
"U.U.W.E.E.W.U.$.M.D.A.b.6 V M M N M D M f M M q q 0 0 8 7 7 7 7 7 7 7 4 7 4 4 4 4 4 ; @ ; ; > : @ @ # ,.H.@.a.d.s.i.D.V.s.M.O.o.",
"U.U.W.Y.R.W.U.%.M.A.A.{.6 D M M M M M M N N f 0 q 0 8 7 5 5 7 4 4 4 4 4 4 4 4 4 < 4 . @ ; - , , - @ @ k S.+.s.C.d.s.D.C.N.V.+. .",
"U.U.W.E.Y.E.U.%.C.S.A.Q N F V D V M M N m m 8 0 7 0 8 7 7 5 7 7 7 4 4 4 < , > ; < > X > - @ 4 , ; @ @ : j.@.u.V.s.s.S.C.N.s.O.| ",
"U.U.W.E.E.W.U.&.V.K.P.R F T N 0 0 q f f f f 8 8 8 7 5 5 7 5 5 4 4 4 , , , , ; - > . X , @   4 , @ @ @   Y O.s.s.s.s.D.C.i.V.O.o.",
"U.U.W.E.W.W.K.&.A.A.c.R R 4 M m 0 7 8 q q 0 0 8 8 7 5 5 7 5 5 4 4 < , > > ; ; - - + . ; +   4 < - ; .   2 +.d.d.N.s.D.V.s.V.o.o.",
"U.U.W.E.W.W.K.&.A.S.l.R 0 m F S m g q q q q 0 0 0 0 0 0 9 0 7 2 2 < , , : : ; : @ ; O @ @ O 7 7 : : : @   O.d.s.s.s.D.V.s.V.O.o."
};
