/* XPM */
static char *result[] = {
/* columns rows colors chars-per-pixel */
"64 64 223 2 ",
"   c #0A0504",
".  c #140C09",
"X  c #190E09",
"o  c #130805",
"O  c #19100F",
"+  c #19100B",
"@  c #29150C",
"#  c #26180C",
"$  c #3B180B",
"%  c #2A1C13",
"&  c #251A14",
"*  c #341F12",
"=  c #230902",
"-  c #3E210D",
";  c #2F221A",
":  c #392314",
">  c #36251E",
",  c #382A24",
"<  c #3F302A",
"1  c #541607",
"2  c #472B15",
"3  c #532A12",
"4  c #583418",
"5  c #4F3216",
"6  c #632E17",
"7  c #6B3516",
"8  c #6A391A",
"9  c #68381A",
"0  c #753C1C",
"q  c #44332B",
"w  c #493425",
"e  c #533B29",
"r  c #493834",
"t  c #553B33",
"y  c #6E3E22",
"u  c #75411D",
"i  c #5A4329",
"p  c #6C4326",
"a  c #734323",
"s  c #784826",
"d  c #6B4630",
"f  c #644937",
"g  c #7B4C33",
"h  c #7B5833",
"j  c #6E5338",
"k  c #6C4D43",
"l  c #7B5C42",
"z  c #765646",
"x  c #6C554D",
"c  c #834E24",
"v  c #8A4E25",
"b  c #834B2B",
"n  c #845126",
"m  c #84522B",
"M  c #8A542C",
"N  c #8C572B",
"B  c #945A2D",
"V  c #804232",
"C  c #8B5533",
"Z  c #925D33",
"A  c #985B38",
"S  c #9E662A",
"D  c #9F692D",
"F  c #89633A",
"G  c #9C633E",
"H  c #976436",
"J  c #A36B2D",
"K  c #A86F2E",
"L  c #A46827",
"P  c #A9712F",
"I  c #A46D31",
"U  c #A86E31",
"Y  c #A1693B",
"T  c #A67235",
"R  c #AA7435",
"E  c #AA7639",
"W  c #AE7A3A",
"Q  c #B17637",
"!  c #B27638",
"~  c #B47C3C",
"^  c #B97D3D",
"/  c #88574C",
"(  c #B35E58",
")  c #8E6A4B",
"_  c #966E44",
"`  c #9B6749",
"'  c #88665B",
"]  c #9C6B54",
"[  c #9D754D",
"{  c #A5674C",
"}  c #AC7C45",
"|  c #A67A4B",
" . c #AC7D4B",
".. c #A47644",
"X. c #B37F43",
"o. c #B97F40",
"O. c #B67F4C",
"+. c #B06E53",
"@. c #A87B57",
"#. c #B57857",
"$. c #AA6853",
"%. c #987467",
"&. c #B57B6B",
"*. c #B87D63",
"=. c #A87969",
"-. c #C97D7A",
";. c #B6803F",
":. c #BA813F",
">. c #AD824E",
",. c #B58242",
"<. c #BC8543",
"1. c #BE8846",
"2. c #B4814B",
"3. c #BA854A",
"4. c #BE8A49",
"5. c #AA8152",
"6. c #B58652",
"7. c #BC8B54",
"8. c #B78B5A",
"9. c #BE915A",
"0. c #B78769",
"q. c #BD9563",
"w. c #BA9467",
"e. c #AB8372",
"r. c #BB8C79",
"t. c #B99178",
"y. c #BBA17A",
"u. c #C18645",
"i. c #C18947",
"p. c #C08748",
"a. c #C38C4A",
"s. c #C98E4D",
"d. c #C6904E",
"f. c #C9914E",
"g. c #C18E52",
"h. c #C49153",
"j. c #CC9553",
"k. c #CE9856",
"l. c #C3945C",
"z. c #CE9A59",
"x. c #C89558",
"c. c #D09957",
"v. c #D19B59",
"b. c #D09756",
"n. c #C49A64",
"m. c #CA9D64",
"M. c #C49D6C",
"N. c #C59B67",
"B. c #C48973",
"V. c #C59678",
"C. c #CCA06A",
"Z. c #C4A274",
"A. c #CDA877",
"S. c #C4A57B",
"D. c #C5A97F",
"F. c #CBAB7D",
"G. c #CBA474",
"H. c #BF9585",
"J. c #BCA49D",
"K. c #C79C89",
"L. c #C99986",
"P. c #D19B84",
"I. c #D49B88",
"U. c #D69B94",
"Y. c #C5AB83",
"T. c #CAAD82",
"R. c #C6AF88",
"E. c #C9A68C",
"W. c #D9A88E",
"Q. c #C7B18C",
"!. c #CBB28B",
"~. c #D0B58B",
"^. c #C9A59B",
"/. c #D4AB95",
"(. c #DBAC9A",
"). c #DBA693",
"_. c #C4B494",
"`. c #CAB691",
"'. c #C9B997",
"]. c #CDBC9A",
"[. c #D6B59C",
"{. c #E3B39D",
"}. c #EBBA9C",
"|. c #E2A99C",
" X c #DBAFA0",
".X c #CDB9A5",
"XX c #DEB4A6",
"oX c #E5B4A4",
"OX c #EABDA5",
"+X c #E4BCA9",
"@X c #E8BBA9",
"#X c #F0BEAD",
"$X c #E3BFB1",
"%X c #E0ABA1",
"&X c #CDC2A4",
"*X c #CCC7AC",
"=X c #CFC9AD",
"-X c #D1C4A4",
";X c #D1CAAE",
":X c #D1C6A8",
">X c #CECCB3",
",X c #D1CEB5",
"<X c #DDC0B4",
"1X c #D3D0B6",
"2X c #D3D3BB",
"3X c #ECC3AC",
"4X c #E8C2AA",
"5X c #F3C3AB",
"6X c #E5C2B2",
"7X c #EEC4B2",
"8X c #EECBB6",
"9X c #ECC6B8",
"0X c #F6CBB4",
"qX c #F5CDBB",
"wX c #F5C9B8",
"eX c #F6D1BD",
"rX c #FCD5BF",
"tX c #D4D8C2",
"yX c #FBD2C3",
"uX c #F9D7C7",
"iX c #F9D6C9",
"pX c #FFE2CF",
"aX c #FFE5D5",
/* pixels */
"j.j.c.j.c.v.f.:.s.s.s.a.s.a.i.:.i.a.1.:.u.;.T 4.h e # s c s s 4 d e.[.6X8X8X6Xe i ..1.<.a.1.Q T 1.i.a.d.,.E 4.1.1.,.a.i.:.i.W P ",
"j.j.c.b.c.c.f.:.i.a.a.s.s.i.u.:.1.i.:.u.:.~ R a.a.u.H n n s u p / E.[././.8XeX} 1.1.1.<.4.3.! I 1.1.a.d.,.E 4.4.1.<.1.i.i.i.;.P ",
"f.b.v.c.b.c.s.^ s.s.s.s.f.u.u.^ i.i.u.u.i.Q ~ a.i.i.,.B v M c { W.rX0X4X(.[.8X0.<.1.a.p.3.3.W I 1.a.a.d.;.;.4.1.<.<.a.1.u.i.;.P ",
"j.j.v.j.b.v.i.^ a.a.s.a.f.u.u.^ i.i.1.:.1.R ~ 4.a.i.;.F M c 0 ` V.(.OX3X0X+X+X0.<.1.4.<.3.4.W T 1.4.4.d.;.;.4.1.:.<.a.1.:.4.:.P ",
"j.b.c.c.k.c.u.u.i.s.i.s.s.u.u.^ u.u.1.u.:.R ;.4.1.i.,.Z M u 0 y ] E.+XoXOX3X8Xt.2.1.a.1.3.3.W T <.4.4.a.} ;.4.1.<.<.a.i.u.u.:.P ",
"s.b.c.k.k.v.u.^ i.i.s.s.f.i.:.^ :.1.:.<.u.T ;.a.i.1.} H s c 0 V ( U.9X7X{.4XeXE.,.4.4.1.1.1.Q I <.a.a.a.E ,.1.1.<.:.u.u.:.a.:.R ",
"a.f.c.b.j.c.u.u.s.i.s.i.s.u.:.^ <.u.1.<.1.R ,.d.a.1.>.H 4 9 4 / ( -.U.H.B.4XeX<X} 1.7.4.3.4.R J <.a.a.a.T <.4.1.<.<.a.<.:.i.:.P ",
"u.f.c.b.k.v.<.^ i.s.i.i.s.u.:.:.1.<.<.<.1.R ;.4.1.,.| n 4 7 9 C *.(.XXL.0.}.4X8X9.l.4.4.,.4.Q D <.4.4.a.T 3.4.<.1.,.i.u.<.a.<.Q ",
"<.f.c.j.b.b.u.^ i.s.i.i.f.u.:.:.1.:.1.<.1.T <.d.O.B A c 7 0 7 a I.%X#XU.P.OXOX+X0XqXg.<.<.4.R D 1.4.4.4.T 4.4.1.3.:.1.1.:.a.:.Q ",
"<.f.k.j.b.v.u.^ i.s.i.s.i.i.:.:.<.1.<.1.4.T ;.4.Y M Z v 7 6 M { 9XoX|.B.).eXrX@X7X+XM.4.3.4.W T 1.4.4.,.T 4.1.1.1.1.a.:.:.a.:.Q ",
":.f.b.k.b.b.u.^ s.i.s.i.i.:.Q :.:.<.;.1.1.T ,.4.C M Y v 0 7 A +.#XyX#XI.oXiXuX0XL.U./.3.4.4.~ D 4.1.9.4.T 4.3.1.;.<.1.<.:.1.:.Q ",
"<.s.k.j.j.b.s.! i.i.i.i.i.u.Q :.1.:.1.1.1.W ;.d...m S v 7 0 v +.#XyXyX%X(.7XyX0X=.I.oX8.3.4.W I 1.1.4.4.T ,.1.4.1.<.1.<.:.a.:.R ",
"^ s.j.j.k.c.i.~ a.i.1.a.a.:.:.:.1.:.1.1.1.E ;.1.Z s B u 3 $ 3 { yX@X&.( L.).#X0X' t &.@.O.1.~ J 4.4.4.h.E ,.3.1.<.<.<.<.u.1.:.P ",
"<.s.j.j.f.k.a.~ a.a.i.a.a.i.Q ;.:.,.<.1.1.E ;.1.F 4 Z 3 @ o = C 9XI.1 $ x B.7XwXx % z ) O.3.~ T 4.4.4.d.E ,.4.1.<.<.1.:.:.a.:.P ",
"^ s.b.j.b.c.a.! a.a.i.i.i.u.Q :.1.;.1.4.1.;.;.1.;.e G 8 2 = $ b (.r.g y &.^.$XyXf 2 z [ O.,.! T d.4.h.d.,.W 3.4.<.<.u.<.:.u.:.P ",
"o.s.j.j.f.f.a.Q a.a.i.i.i.:.Q Q ;.1.,.,.4.E ;.4._ 2 C 4 2 : d ] &.=.%.z =.^.$XyXt , z | 2.<.W T 4.4.4.d.,.E 4.<.<.<.<.<.<.1.:.T ",
"<.a.j.j.j.j.a.! p.a.<.a.a.<.! ~ <.,.<.1.4.;.E 4.>.5 p s p g { B.V. X^.J..X6XiXH.w , l | 2.1.Q R 4.d.4.j.,.E 4.1.1.;.1.<.;.4.:.K ",
"<.a.j.j.j.j.p.! p.1.1.a.p.<.! ! <.<.,.1.1.,.T 4.2.4 5 S B H G 0.I.oXwXpXaXiX$Xx q ; l | >.3.Q Q d.4.4.d.4.T ,.1.1.;.<.1.:.1.;.J ",
"o.a.s.j.j.b.p.! a.u.u.a.a.1.! ~ 3.<.<.1.4.1.E 1.<.i 4 B v v Z *.P.{.@X7XiXiX<Xl q , l | ,.<.R Q a.4.d.d.4.;.;.1.1.:.4.:.o.<.~ K ",
"o.s.j.j.s.b.p.! u.p.1.<.4.<.! ! ,.<.1.1.4.4.T ,.1.i 5 N n N G #.V./.XX6XiXiXiX%.r q l 5.<.<.R W d.d.4.d.4.;.;.1.1.:.1.1.:.<.~ K ",
"<.a.f.j.j.j.p.! i.<.a.a.4.4.! W 4.;.;.1.1.1.;.;.4.h % 5 u C G 6.V.).}.5XyXuX[.k r w ) | 1.:.Q W 4.a.d.d.4.;.;.:.1.:.<.<.~ <.~ I ",
"<.s.j.g.j.j.p.! a.i.4.a.a.1.~ ! ;.;.4.4.4.4.;.T 1.E # + # : 2 f ] V.V.V.H.H.k , , f | X.a.:.R ;.a.i.a.d.d.:.T ;.1.<.<.<.o.<.~ I ",
"o.s.j.j.j.j.a.! i.1.a.4.4.1.;.! ;.4.,.4.4.4.;.T 4.1.H ; + .     % f r r < x r O i ) | <.i.i.P Q d.a.d.a.d.a.T ;.<.<.<.,.~ <.~ K ",
"3.s.h.h.j.j.a.! 1.1.a.i.4.1.~ Q ;.;.4.,.4.4.;.I 1.:.7.F : # # + O & + . O > , q _  .<.<.a.:.R ;.a.a.a.a.d.d.;.;.<.<.<.<.^ <.~ I ",
"<.a.h.j.j.j.<.^ a.a.4.u.4.4.,.! ;.:.4.4.4.4.;.;.;.;.4.4.T 5 : # o .     O , j ..u.i.i.i.a.u.R :.a.a.s.s.a.a.~ W 1.:.3.:.;.,.;.I ",
"1.s.j.k.h.j.<.X.p.a.a.a.d.4.<.! ;.4.4.4.4.4.4.;.;.;.d.4.u.u.H i w ; ; j _ >.~ :.i.i.u.i.i.u.P ~ i.s.i.a.h.a.<.E i.:.<.,.:.:.;.I ",
"a.a.j.k.j.j.<.X.a.a.1.p.4.4.1.~ ;.4.4.:.4.4.;.;.:.:.d.1.i.i.:.i.4.} 2.d.f.f.:.~ i.i.i.i.i.u.Q :.i.s.a.i.s.a.i.T <.<.<.<.:.,.;.D ",
"d.h.k.z.j.j.<.<.a.a.u.a.a.a.<.~ ;.:.:.4.4.;.;.;.1.:.d.d.i.i.:.u.d.s.j.d.j.f.<.^ i.i.i.a.s.u.P :.a.s.a.a.a.a.a.R ~ :.:.<.;.:.;.I ",
"h.h.k.z.j.j.<.^ a.a.u.a.s.4.<.<.;.:.:.d.:.d.;.;.:.1.d.i.i.i.:.:.f.f.j.f.f.j.<.! i.i.s.i.d.:.Q ~ d.a.a.a.a.a.a.W ! :.<.:.<.<.;.D ",
"h.j.j.v.j.j.s.~ u.1.a.a.h.a.<.<.;.:.4.d.:.d.;.D :.1.d.d.:.d.:.:.f.f.j.f.f.j.a.^ i.s.i.i.d.1.Q ~ d.s.s.a.s.a.a.R W <.;.<.<.<.,.T ",
"j.k.k.z.k.j.j.~ <.<.a.a.a.a.<.~ ;.:.:.:.d.d.:.;.;.i.d.i.i.i.:.:.d.s.f.f.f.j.a.^ u.a.i.a.d.u.:.R a.s.i.a.a.a.s.W R <.:.X.<.<.,.T ",
"a.k.j.z.j.j.j.<.<.a.4.a.a.4.<.! ;.;.4.d.d.4.d.;.;.:.d.d.i.d.:.:.f.a.b.j.f.j.a.^ u.a.i.a.a.u.u.T a.f.a.a.a.a.a.! R <.<.,.<.<.,.T ",
",.k.k.z.k.k.k.:.1.1.4.a.d.4.;.R 1.:.;.4.4.4.4.K ;.i.a.a.u.i.~ u.f.a.j.s.f.j.d.<.^ s.i.s.i.u.1.T s.d.s.i.a.a.a.R ~ <.:.,.<.<.<.T ",
"3.k.k.k.k.k.k.:.i.a.a.a.4.1.;.K ;.;.1.1.4.4.1.R <.1.a.s.u.s.^ :.f.a.f.d.f.j.f.:.^ i.i.a.s.u.<.R a.s.s.i.a.a.i.T ;.<.<.;.<.<.<.T ",
"3.j.k.k.k.f.j.:.:.d.4.4.4.4.;.;.;.:.4.1.4.4.4.R <.1.s.i.u.s.~ u.f.f.f.f.f.j.f.^ ^ s.a.u.s.u.:.Q d.h.s.i.d.a.4.T ~ <.<.<.<.<.<.E ",
"4.d.k.c.~.].].x.;.a.F.]._.C.;.7.`.].F.1.!.].].J.R.<.s.T.T.i.O.[.C.T.~.f.f.~.F.^ <.h.].].].a.~ y.].~.l.i.!.T.d.8.'.4.D.'.'.R.7.I ",
"d.d.k.-X2X-X,X].;.&X2X:X2X;X9.2X*X-X2XR.!.,X2X,X&X1.a.].,Xo.7.tX~.].2X~.f.1X].:.^ g.].-XtXl.].2X].;X1Xl.1X].a.t.tX9._.2X].2X&XD ",
"4.d.m.tX~.k.j.C.9.2XT.a.4.n.J.1X;.:.R.2X9.n.tXy.a.<.i.].1X<.7.tXT.].tX2Xm.1X].~ u.u.i.T.tX9.tXY.a.j.2X!.1X].<.y.tX9.'.,X,.'.2XD ",
"a.s.F.tXA.k.F.1XS.tXC.4.4.4.&X&X;.;.D.tX9.l.tXS.1.1.s.].>Xu.g.tXT.].1X:X;X1X].! u.a.u.T.tXY.tXw.s.s.,X].1X].<.y.tX9.'.2X,X2X'.D ",
"d.a.z.2X-XC.`.2XN.1X&XN.D.`.y.1Xy.n.-X;X4.l.tXD.1.<.a.!.1XM.Y.tXA.].1Xm.2XtX~.^ p.l.T.R.2X1.2X].l.T.tXY.-X;XN._.2X4.'.,XQ.2Xw.I ",
"a.h.j.A.2XtX2X].i.q.2XtX2X'.R _.2XtX>Xl.4.l.tXy.4.<.a.i.].tXtX`.s.].1Xs.F.tX'.^ <.!.2XtX!.:.w.;XtX2X!.a.l.>XtX2XY.<.'.>X,.*X>X>.",
"s.h.d.j.z.C.z.d.i.;.h.l.h.4.;.;.4.9.,.4.4.4.>.4.4.<.s.<.<.l.g.a.a.f.j.s.f.m.<.<.i.a.a.l.i.:.P ~ l.h.a.d.d.4.8.,.3.<.4.4.;.3.| J ",
"s.s.j.j.j.z.z.F.].y.1.l.!.`.7.;.y.'.D.4.F.y.y.y.<.N.T.T.T.<.M.].T.a.C.C.d.F.7.Z.T.N.a.Z.].D.J q.C.4.D.l.R.T.y.;.l.!.`.9.~ <.J L ",
"a.a.j.h.j.j.`.2X].&XC.,X:X&X=XH.,X`.1X].!.=X*X!.a.D.&X2X'.Y.2X].,X].].].d.1XS.T.;X].R.,X'.>X_.'.].a.1XT.tX].*X`.'.=X&XY.~ <.J L ",
"a.a.j.j.j.z.,X!.d.y.F.,X4.:.4.*X!.;.y.;X:.'._.4.a.1.T.,Xo.=X!.p.G.,X].].f.1XS.i.].'.;XR.1.M.>X'.'.i.1XF.tX!.&X'.R.2X].q.,.<.S L ",
"s.a.j.j.j.z.:X].d.>XD.2XC.l.y.*X].;.T.=Xd.'.'.4.u.<.Y.,X^ &X[.u.!.;X]..Xs.,Xt.l.'.].-X'.1.Y.*X'.&Xi.1X!.tX=XtXq.M.Y.].=X<.~ S L ",
"a.s.j.j.j.z.C.;X1X2Xn.!.tX2X].4.=X1X2Xy.4.'._.4.p.<.T.,X! l.;X,X2XM.m.2X1X].9.2X2XM.l.,X,X2X0.9.2X1X&Xl.2X9.&X].!.2X2XR.<.~ S L ",
"s.p.j.j.j.c.b.j.9.4.1.4.h.l.;.;.;.9.9.4.4.4.>.4.a.<.p.g.! u.u.l.g.u.j.x.x.<.<.3.g.<.<.<.n.3.D ~ 9.l.a.d.n.,.>.4.<.7.l.<.^ X.J J ",
"s.s.j.j.j.c.k.s.~ 1.u.a.4.1.p.~ ;.<.1.a.4.3.T 3.4.i.a.1.! p.u.u.a.<.a.s.a.^ <.<.1.1.:.1.1.:.D ;.i.a.i.d.4.;.;.;.,.;.4.:.:.;.I J ",
"s.s.j.j.j.c.b.u.^ a.u.p.a.p.p.~ ;.<.<.4.1.1.T <.1.:.4.;.^ a.u.u.a.<.a.a.s.~ <.<.u.1.:.1.1.;.D ;.4.4.a.4.9.,.;.;.4.;.4.:.:.:.J L ",
"s.s.j.j.j.c.b.u.^ a.u.a.a.a.a.^ ~ <.1.1.4.1.R ;.u.1.d.~ ^ p.o.u.u.u.a.a.a.~ <.<.1.1.1.1.1.;.D ;.4.4.a.d.4.;.;.,.;.;.:.:.:.:.J K ",
"s.s.j.j.f.c.b.^ <.p.p.a.u.u.u.~ ;.<.1.1.4.4.W ;.a.1.4.~ o.a.o.u.u.<.a.s.a.^ <.<.<.<.1.:.1.:.D ;.4.4.4.d.1.;.;.4.4.1.4.4.:.;.J J ",
"s.s.j.j.b.c.b.^ u.i.u.a.a.u.a.^ :.<.1.1.1.4.,.R 1.:.1.~ :.a.<.u.u.u.a.a.a.<.~ <.u.<.1.1.1.;.I ;.a.4.4.d.d.;.;.,.1.1.1.a.:.a.J K ",
"f.f.b.b.k.c.j.~ u.i.s.a.a.u.a.! <.<.1.1.1.1.<.T u.u.1.~ ~ a.<.u.a.p.a.a.a.<.~ <.u.<.1.<.1.;.D ;.a.1.4.d.4.;.;.4.:.:.1.:.1.4.K K ",
"j.j.b.j.k.v.k.! u.a.i.a.a.u.a.! <.<.1.1.1.a.<.R :.i.4.~ ^ 1.<.<.a.p.a.p.a.<.~ <.1.1.1.<.4.;.S ;.1.4.a.4.4.;.;.,.1.:.1.:.:.4.P K ",
"j.s.b.b.j.v.j.^ u.a.a.i.s.u.a.^ :.1.<.1.1.1.i.R ;.1.4.~ ^ a.<.u.1.1.a.a.s.1.~ <.<.<.i.<.;.;.S ;.1.a.a.d.h.;.;.;.1.:.a.i.:.4.P J ",
"j.j.c.c.c.c.f.^ u.u.a.a.s.u.a.^ :.1.1.u.1.1.1.R X.u.4.! o.p.<.1.a.<.4.a.a.4.~ 4.4.4.4.:.4.;.D ;.;.4.d.4.4.;.;.d.1.:.i.:.:.a.P P ",
"j.f.c.c.b.c.b.^ u.a.i.s.a.u.i.! 1.i.1.<.u.<.1.R <.<.4.~ o.p.<.1.4.<.a.d.a.4.~ <.4.:.:.d.4.4.S ;.4.d.d.d.4.;.;.:.1.:.a.:.i.i.R P ",
"f.b.c.c.b.c.j.Q u.i.i.i.s.s.a.! :.u.<.<.u.<.<.T <.<.1.~ <.1.a.1.a.1.g.s.a.1.<.<.:.d.:.a.4.:.;.;.:.d.4.4.d.;.;.d.1.:.d.a.i.:.R P ",
"f.f.c.c.c.c.b.Q u.s.s.s.s.i.i.^ u.u.u.<.1.<.1.R <.u.<.~ o.1.1.1.a.a.h.j.s.s.X.1.4.d.:.:.4.4.P ;.:.d.d.4.4.;.:.4.1.:.d.i.i.i.R P ",
"b.b.c.c.c.c.c.:.i.s.i.s.s.u.a.^ i.i.<.u.<.<.<.I <.<.<.! <.a.p.4.d.a.d.h.a.d.,.<.a.:.d.a.4.4.;.D d.4.d.d.4.;.;.4.i.:.d.i.:.i.R P ",
"j.b.c.c.c.v.c.:.i.s.s.a.f.a.u.^ 1.u.1.<.p.<.X.R u.<.<.! 1.4.a.a.h.a.d.j.s.a.<.<.:.a.:.d.4.;.P ;.:.d.d.d.;.;.;.:.i.:.a.i.:.a.R P ",
"f.c.c.c.c.v.f.^ s.s.s.s.f.i.u.:.1.i.u.<.<.<.R ~ a.<.<.! a.a.a.4.j.a.d.h.d.a.<.~ :.4.:.4.4.4.P I :.d.d.d.4.;.a.:.i.:.a.i.:.i.P R ",
"f.c.c.c.c.c.f.^ s.i.s.s.s.i.u.^ i.i.u.<.<.<.T <.a.<.<.! 4.4.a.a.d.h.s.j.s.s.<.o.4.4.4.:.4.4.;.;.d.:.4.d.4.;.:.i.:.i.a.i.i.i.R P "
};
