/* XPM */
static char *_d02c7538c9c45cdcdced1b50156f3b1DKCarqctj1TPdHxA[] = {
/* columns rows colors chars-per-pixel */
"64 64 180 2 ",
"   c #9E662A",
".  c #9F692D",
"X  c #A46827",
"o  c #A36B2D",
"O  c #A86F2E",
"+  c #A9712F",
"@  c #A36D31",
"#  c #A86E31",
"$  c #A67235",
"%  c #AA7435",
"&  c #AA7638",
"*  c #AE7A3A",
"=  c #B27637",
"-  c #B27639",
";  c #B47B3C",
":  c #B97E3E",
">  c #B47F40",
",  c #B97F40",
"<  c #44AE44",
"1  c #4CB14C",
"2  c #55B555",
"3  c #58B657",
"4  c #57B658",
"5  c #59B759",
"6  c #5CB85C",
"7  c #67AF57",
"8  c #68AF57",
"9  c #63B45A",
"0  c #6AB25A",
"q  c #5DB961",
"w  c #63BB63",
"e  c #6ABD66",
"r  c #67BD6E",
"t  c #6BBF6B",
"y  c #6EC06E",
"u  c #74C16C",
"i  c #73C273",
"p  c #75C478",
"a  c #7BC67B",
"s  c #B6803F",
"d  c #BA813F",
"f  c #B68242",
"g  c #BC8543",
"h  c #BE8847",
"j  c #BA8749",
"k  c #BE8A49",
"l  c #BA8D56",
"z  c #C18745",
"x  c #C18645",
"c  c #C08845",
"v  c #C18945",
"b  c #C08846",
"n  c #C08847",
"m  c #C08947",
"M  c #C18947",
"N  c #C18946",
"B  c #C18A47",
"V  c #C48844",
"C  c #C58A47",
"Z  c #C18947",
"A  c #C08748",
"S  c #C08748",
"D  c #C08948",
"F  c #C18948",
"G  c #C38948",
"H  c #C18A48",
"J  c #C18A49",
"K  c #C18B49",
"L  c #C08B49",
"P  c #C28A48",
"I  c #C28B49",
"U  c #C08B4A",
"Y  c #C18B4A",
"T  c #C18A4B",
"R  c #C28B4B",
"E  c #C48948",
"W  c #C58B48",
"Q  c #C48B4B",
"!  c #C18C4B",
"~  c #C08D4B",
"^  c #C28C4A",
"/  c #C28C4B",
"(  c #C38D4B",
")  c #C28C49",
"_  c #C58C49",
"`  c #C58C4A",
"'  c #C58D4B",
"]  c #C68C4A",
"[  c #C68D4A",
"{  c #C68C4B",
"}  c #C78D4B",
"|  c #C78E4B",
" . c #C68E49",
".. c #C38C4C",
"X. c #C28E4C",
"o. c #C38E4D",
"O. c #C48D4D",
"+. c #C48E4C",
"@. c #C48F4D",
"#. c #C68E4C",
"$. c #C68E4D",
"%. c #C78F4D",
"&. c #C58F4E",
"*. c #C58F4F",
"=. c #C68F4F",
"-. c #C38C4A",
";. c #C98E4D",
":. c #C7904D",
">. c #C7914D",
",. c #C5904E",
"<. c #C5904F",
"1. c #C6904E",
"2. c #C7904E",
"3. c #C7914F",
"4. c #C5904E",
"5. c #C9914F",
"6. c #C8904D",
"7. c #C9914F",
"8. c #C79150",
"9. c #C79352",
"0. c #C69251",
"q. c #C99351",
"w. c #C89353",
"e. c #C89051",
"r. c #C89452",
"t. c #CE9551",
"y. c #CD9552",
"u. c #CD9553",
"i. c #CE9553",
"p. c #CD9653",
"a. c #CC9451",
"s. c #CB9554",
"d. c #CD9554",
"f. c #CD9654",
"g. c #CE9755",
"h. c #CF9756",
"j. c #CB9553",
"k. c #CF9855",
"l. c #CF9856",
"z. c #CF9956",
"x. c #CE9856",
"c. c #CF9A59",
"v. c #CE9A59",
"b. c #D09756",
"n. c #D09957",
"m. c #D09A57",
"M. c #D09957",
"N. c #D09A58",
"B. c #D19B59",
"V. c #D09B5A",
"C. c #D19C5A",
"Z. c #D19B5A",
"A. c #83C676",
"S. c #84CA84",
"D. c #89CB86",
"F. c #86CB88",
"G. c #8CCD8C",
"H. c #88CA90",
"J. c #92CF92",
"K. c #95D195",
"L. c #9AD49B",
"P. c #A1D397",
"I. c #A2D7A7",
"U. c #A5D8A5",
"Y. c #AADAA7",
"T. c #AADBAB",
"R. c #B2DDAF",
"E. c #ACDCB2",
"W. c #B3DEB5",
"Q. c #B7E0B7",
"!. c #B1E0BE",
"~. c #BAE2BA",
"^. c #B4E1C1",
"/. c #C2E4C2",
"(. c #C8E7C8",
"). c #CDE9CD",
"_. c #D3ECD3",
"`. c #DBEED0",
"'. c #DDF0DD",
"]. c #EEF7E9",
/* pixels */
"u.u.c.u.m.V.5.: Q [ [ $.$.Q I : M I z g g : $ I M g f - I I I I 8.>.>.r.5.>.I : M g h g I h * % z M / >.g & / g z g I M g M * $ ",
"d.u.l.d.m.c.>.: [ [ [ >.a.I z d h A g g g - & I M g f - I I I I 8.>.8.a.$.$.$.: h g h g h h - @ g h / >.f * h g g g M I g M - $ ",
"u.u.V.l.m.V.[ : [ 5.[ [ a.Q z : M A M g M * ; / M g f - g / / I 8.o.$.r.>.$.$.: g h h g j j - @ h M / >.; * / h g g I z g I ; $ ",
"s.u.V.l.l.C.Q : [ $.[ [ >.C z ; M M g g g % ; I I M g - g I I h $./ $.a.$.$.$.f f h I g j h * @ h M / $.f ; h j f g I h g I : * ",
"u.u.V.m.l.V.z g [ [ [ [ >.z g : g M g g g % s M I z g - f h h h o.I >.8.$.$.$.f f g I z h h * @ h M I o.* ; I h g g M M g g d $ ",
"$.u.m.b.d.V.g g Q Q [ [ >.C g - g h g g g $ : / I M g - g g I g I g o.8.$.$.$.f f h I h h j * @ g I / / & f h h g g M M g M g $ ",
"[ 5.V.b.u.V.g g [ [ Q [ [ z g : g g g g g % f o.I g h - , g g h h g / 8.$.>.$.f f h h g h j & @ g I I / $ g h h g g M g g M g O ",
"h a.c.u.d.V.g : Q Q Q [ [ z g d g g g g g & f I h g g ; , h g h I g / $.$.$.o., f h I g g j - o g h / o.$ j h g g g I g g M g % ",
"f a.l.u.d.m.z : I [ I I [ z : : g g g g g % f / M g h - ; h g M I g / o.o.>.$.: : g h h g h = . g h / h $ h k g g g h g g I g % ",
"f a.d.d.l.V.z : Q [ I I / z ; d g g g g h % f / I g h : ; h g z I I / / / 8.o.; d g h h h h - @ g h o.j $ h h j h g M g g [ g * ",
"f 7.d.d.d.m.z : [ I Q I [ g - f g g g h h % f I I g g : - I g g I I o.I o.8.$.; : g g g h h - @ g h o.h $ j j g g g g g g I g * ",
"f ;.d.d.d.c.I - [ M M I I g - d g f g g h & s I I g h f - I g g M g $.o.! 8.$.; , g g h g h ; @ h h o.h $ g h h g g g g g I f % ",
"f ;.u.a.u.l.M - [ I M I I g - : g f g g h * f I I g h g = I g z M g $.$.[ a.$.; , g g g h h - @ h h o.o.& f j h g g g g g h f $ ",
"g ;.d.u.u.d.I - I I M I / g - : f g g h h * ; I h g I g - z g z z g / o.$.s.$.- f g g h h h - @ k I o.<.* > h h g f g f g M d # ",
"f ;.d.u.a.l.I - I I z I I g - ; g f g h h * * I h g h g - g g z I g [ [ $.r.$.- f g g h h h - % / h >.<.> * h h g d h f : M d # ",
"f ;.d.u.a.d.I - I I h I I g - ; g g g h h ; * I h g I h = z z z M g $.$.[ r.$.- f g g g h g * % I I o.8.f & h h g f g g g h : # ",
"f Q u.u.r.u.I - I I h I I g = ; f f g h h ; & h h g I g - g z z I z $.[ [ r.$.- g g g h g g * * / / o.8.g & h g g g h g d g d @ ",
"f [ r.a.u.d.I - z I g I I g - - g g g h h f % h h g I g - g M z I z $.$.[ a.$.- g g g g h g & * / I / >.h $ g g g f g g f g : @ ",
"f Q a.s.a.s.I - I M I I / g = - g g g h h g $ h h g h g : g M M Q M >.[ [ a.$.- g M g g h g % - I I / >.$.% : h g g h g f g - @ ",
"f Q s.r.a.u.z - M z z M h g - - g g g h h h $ g h h I I : f M M I z $.[ $.8.$.- M g g h g g % - / I o.>.$.* ; h g g g g d g - O ",
"f [ r.a.a.s.z - I M I I h h - 8 9 9 9 9 9 9 9 9 9 9 9 9 9 9 9 9 9 9 9 9 9 9 9 9 9 9 9 9 9 9 9 9 0 I $.$.$.: * h g g g f : g ; @ ",
"f ;.a.a.r.s.M - I M I I h h - 9 6 6 6 6 6 6 6 6 6 6 6 6 6 6 6 6 6 6 6 6 6 6 6 6 6 6 6 6 6 6 6 6 9 I o.$.$.g % g h g g g : g - o ",
"f a.a.a.a.r.I - M h I I I h : 9 6 6 6 6 6 6 6 6 6 6 6 6 6 6 6 6 6 6 6 6 6 6 6 6 6 6 6 6 6 6 6 6 9 I o.$.$.o.$ f g g g f : f - O ",
"g $.a.r.r.r.I - z I I I h h : 9 6 6 6 6 6 6 6 6 6 6 6 y 6 6 6 6 6 6 6 6 6 6 6 6 6 6 6 6 6 6 6 6 9 / $.[ $.$.* : g g g f : g : @ ",
"h Q a.s.a.r.g : I I / M h h f 9 6 6 6 6 6 6 6 6 2 2 ^.`.6 4 6 6 6 6 6 6 4 6 3 6 6 6 6 6 6 6 6 6 9 [ [ [ $.$.; * g g g f : f : @ ",
"g $.a.l.a.r.g : I I I I / h g 9 6 6 6 6 6 6 6 q T./.].u 6 i y y i i i i p i i i 6 6 6 6 6 6 6 6 9 $.[ Q $.[ g & g g g g : f : @ ",
"I $.s.l.s.r.g f I / I I / h g 9 6 6 6 6 6 6 6 6 !.].u 2 q E.Q.W.R.G.P.L.).T.Y.E.u 6 6 6 6 6 6 6 9 [ / Q [ I M $ f g g g f f s o ",
"$.a.l.c.u.s.f f I / M Q o./ g 9 6 6 6 6 6 6 6 6 6 w 4 6 6 F.S.D.a S.F.S.G.a S.G.e 6 6 6 6 6 6 6 9 $.Q Q [ / / % : g f g : f : @ ",
"8.a.d.c.u.d.g : I / I [ $.o.g 9 6 6 6 6 6 6 6 6 6 6 6 6 6 4 4 4 3 4 4 4 4 3 4 4 6 6 6 6 6 6 6 6 9 $.[ Q [ / I & - f f f f g s @ ",
"8.r.d.V.d.r.$.: M M I Q $.o.g 9 6 6 6 6 6 6 6 6 6 6 6 6 6 6 6 6 6 6 6 6 6 6 6 6 6 6 6 6 6 6 6 6 9 $.$.Q $.I [ * * g f f f g f $ ",
"s.d.l.l.d.r.s.- g h M I / I g 9 6 6 6 6 6 6 6 6 6 6 6 6 6 6 6 6 6 6 6 6 6 6 6 6 6 6 6 6 6 6 6 6 9 $.Q I I Q [ - * g f f g g f $ ",
"o.l.d.c.u.r.d.f g M h I / / f 9 6 6 6 6 6 6 6 6 6 6 6 6 6 4 6 6 6 6 4 4 6 6 6 6 6 6 6 6 6 6 6 6 9 >.[ Q Q Q o.* * g f f g g f @ ",
"g l.d.c.b.d.d.f g I I I o.I : 9 6 6 6 6 6 6 6 w t 6 6 4 w G.t 4 6 4 p G.6 6 6 6 6 6 6 6 6 6 6 6 9 5.[ I I I I % ; g f f g g g $ ",
"j d.l.c.d.d.d.g M I / I o.o.: 9 6 6 6 6 6 6 4 S.'.G.2 y ).W._.p 1 L.)././.6 6 6 6 6 6 6 6 6 6 6 9 $.Q Q I Q I % : g f f g g g % ",
"j a.d.c.d.r.d.f g I o.I k k : 9 6 6 6 6 6 6 6 2 /.K.1 ~.Y.< G.(.w '.t 1 ).K.4 6 6 6 6 6 6 6 6 6 9 $.$.Q $.I [ % : g f f f g g & ",
"h a.d.c.d.d.s.I : I o.M h k - 9 6 6 6 6 6 6 6 4 /.K.2 _.p 4 w _.J.(.4 2 L.Q.2 6 6 6 6 6 6 6 6 6 9 $.Q Q [ I I $ d g f f f g f @ ",
"/ 5.d.c.u.s.d.$.: g o.I k k - 9 6 6 6 6 6 6 6 4 /.K.4 _.p 4 9 ).L./.4 4 L.~.2 6 6 6 6 6 6 6 6 6 9 $.I C [ / I $ d g f f : f f o ",
"I $.s.c.r.s.s.r.f f / I h h - 9 6 6 6 6 6 6 6 4 /.K.1 (.G.1 y _.p _.4 1 W.Y.2 w 6 6 6 6 6 6 6 6 9 [ I I I I g $ g g f f f f d o ",
"o.$.a.c.r.s.s.a.g , o.I k k - 9 6 6 6 6 6 6 6 2 (.L.1 G._.a ).L.2 (.Y.G.'.t p H.L.I.A.4 6 6 6 6 9 $.[ I o./ g & g g g f : f - @ ",
">.Q a.s.r.d.s.8.I : o.I h k - 9 6 6 6 6 6 6 6 6 G.p 6 4 K./.U.6 6 w Q./.a 5 p r S.F.u 6 6 6 6 6 9 [ / I $.o.g $ g g g f : f * @ ",
"$.$.a.r.s.d.s.>.M ; / I h k - 9 6 6 6 6 6 6 6 6 4 6 6 6 4 4 4 6 6 6 4 4 4 6 6 6 6 4 6 6 6 6 6 6 9 I / I o.o.g & g g g f : g % @ ",
"$.a.a.a.r.l.s.>.I ; I I I k : 9 6 6 6 6 6 6 6 6 6 6 6 6 6 6 6 6 6 6 6 6 6 6 6 6 6 6 6 6 6 6 6 6 9 I / o.$.$.: * g g g f : f O o ",
"$.>.s.a.r.c.d.;.[ - M I h k : 9 6 6 6 6 6 6 6 6 6 6 6 6 6 6 6 6 6 6 6 6 6 6 6 6 6 6 6 6 6 6 6 6 9 I I o.o.$.* ; h g g f : g o X ",
"[ [ s.w.a.l.d.5.$.; h I h / f 7 9 9 9 9 9 9 9 9 9 9 9 9 9 9 9 9 9 9 9 9 9 9 9 9 9 9 9 9 9 9 9 9 0 M I / o.o.& : g f g f : g o X ",
"[ Q s.r.a.c.d.a.$.; g I I I f - j g g h h f % / h h I M : , M M I z $.[ $.[ - g I g g h g : o d I M I o.o.o.% f g g g g : f   X ",
"[ Q a.s.a.V.d.$.5.; g I / I g - f g h h h f & h h g I g : f z M Q M >.[ [ I : g M M g g h f o : M I I o.$./ $ f g g h f : d   X ",
"$.[ r.a.d.c.d.$.I ; g I ! I g - f g h h h f & I M g I g - g M z I z $.$.[ g : g M g g g h f o : I M I o.$.h $ g g f g g d ,   X ",
"[ Q u.u.r.c.d.a., f h I I I h - s g h h h f & h h g I g - h z z I z $.[ [ g f g A g g h h : o : I I I o.o.g % g g f h g d : o X ",
"$.;.d.u.a.V.d.$.; g M I I g M - s g g h h g $ g h g I g = I z z M g $.$.[ : f g g h g g h f o : I I I o.>.f & g g f g g f s o X ",
"$.$.d.u.a.c.d.z : I z I I I I - s g g h h g $ g h g h f - ! g z I g [ Q [ : f f g g g h g f . , I I / o.o.g % g g d h f : f o X ",
";.;.d.u.u.c.d.g : I M I I M I : : g g h h h % f M g I : : I g z z z I o.I , g g h g g g h f   f / I / o.<.f & h g d g f g g o X ",
"$.;.u.a.u.c.l., g I M I I z I : d g h h h h ; ; I g h : : o.g z M g $.[ I : f g g g g g g f   d k M / o.o.f & h g g g g g g o O ",
"5.;.l.d.d.l.d.: g M M I I M I ; f g h h h h s % M g h ; : / g z z g / I ! g : g g g g h g g   : / h / o.o.; * h g f g g g g o O ",
"a.a.m.l.d.V.u.- z I Q I Q z I - f g g h h I g $ g g g : : I g z M I / I o.g : g g g g g g g   f h h o.o.>.; * g g g g g g h @ O ",
"a.a.d.d.l.c.u.- z [ Q Q Q C I - g g h g h I g % f M h : : h g z I I I I / g : g g g g g h g   f h h / o.o.; ; g g f M g g M O + ",
"r.5.l.d.d.C.u.- g [ Q I [ M I : g g g g h h M % : z h : : I g M I g / o.o.g : g g g g g g g o ; h I o.o.>.; ; g g d I g g M $ O ",
"r.a.V.d.d.C.u.; z I Q [ [ z I ; g g g g g h h % s z I ; , h g h I g / o./ h ; g g g h g g g o : g / o.o.>.; ; h g f M g g M $ O ",
"r.7.V.m.u.C.d.; z [ Q [ [ M M - g g g g h g h & f z h ; f h g h h g / 8.o.h : h g h g g h g o : M I o.$.>.* ; h g g M z g M % O ",
"a.u.V.m.m.C.d.- z Q [ [ >.C Q - g h g g g g g $ g g g : f h I g I g >.8.$.I : h h h g g h g $ ; z / o./ >.* f h g d / M g z % + ",
"l u.V.l.c.V.d.; z [ [ [ >.z Q - g M g g g g g $ f g g - f h h h o.I 8.8.$./ : g h h g M h h % * M I / [ >.& g I h g / I z M * + ",
"u.d.V.m.l.m.u.; I $.[ [ >.C Q - M M g g g g f $ g g g - g I I h $./ >.a.$.$.: g h h g I / h * % M I / >.$.* s M g g $.I z g % O ",
"u.u.C.m.m.C.r.: C 5.[ [ a.Q M : M I g g h g : % M g g - g / / I 8.o.>.a.$.$.f g z g h M / h * % g I o.>.o.% g g g g / I d M % $ ",
"r.d.V.m.V.C.5.: [ [ [ >.a.z Q : h I g g g g * ; I g f - M I I I 8.$.>.a.$.$.g f g g g M h h * % h I $.>./ & h h z g / M g M $ $ ",
"r.u.C.m.V.C.5.: [ $.[ $.5.C C : M I g g g f $ g M g f - I o.I I 8.>.$.a.$.$.g : M g g h h h * $ I M $.>.h % h g g g / M g M % $ "
};
