/* XPM */
static char *ca14a6a81c014a6aa5f8b8e81ef62beaMzYJASmQukqg8DVr[] = {
/* columns rows colors chars-per-pixel */
"64 64 242 2 ",
"   c #352319",
".  c #3C2B22",
"X  c #553A1E",
"o  c #5B3B1C",
"O  c #573619",
"+  c #503213",
"@  c #633B17",
"#  c #563B21",
"$  c #5A3E22",
"%  c #553524",
"&  c #45342B",
"*  c #683C24",
"=  c #64421E",
"-  c #6C441D",
";  c #74461D",
":  c #634322",
">  c #6E4624",
",  c #744C24",
"<  c #794E25",
"1  c #744B28",
"2  c #765127",
"3  c #7C5227",
"4  c #7C542A",
"5  c #7C552B",
"6  c #7C4C34",
"7  c #795735",
"8  c #684D39",
"9  c #5F4121",
"0  c #6F5845",
"q  c #766150",
"w  c #72706D",
"e  c #82552B",
"r  c #855A2D",
"t  c #895C2E",
"y  c #835525",
"u  c #845B32",
"i  c #895D32",
"p  c #875838",
"a  c #8B5534",
"s  c #8C6135",
"d  c #86623A",
"f  c #8B653B",
"g  c #8E683D",
"h  c #916436",
"j  c #936639",
"k  c #946A3C",
"l  c #986B3D",
"z  c #996637",
"x  c #9A642C",
"c  c #A36B2D",
"v  c #A76D2C",
"b  c #A46D31",
"n  c #A86E31",
"m  c #A67235",
"M  c #AA7435",
"N  c #AA7638",
"B  c #AE7A3A",
"V  c #B37639",
"C  c #B57C3C",
"Z  c #B97D3D",
"A  c #A9712F",
"S  c #824F18",
"D  c #895944",
"F  c #8B6644",
"G  c #946D42",
"H  c #976C47",
"J  c #9A7245",
"K  c #987246",
"L  c #907059",
"P  c #AD7C4A",
"I  c #B67D44",
"U  c #A47A57",
"Y  c #AD704B",
"T  c #93796F",
"R  c #AE7D67",
"E  c #A5594B",
"W  c #BA813F",
"Q  c #B7803F",
"!  c #BC8443",
"~  c #BE8846",
"^  c #BD8A4A",
"/  c #B68349",
"(  c #B48651",
")  c #B58953",
"_  c #BA8B53",
"`  c #B88D5A",
"'  c #BC915D",
"]  c #AD8354",
"[  c #BA8569",
"{  c #BC8877",
"}  c #B78E70",
"|  c #978B7C",
" . c #C18745",
".. c #C18947",
"X. c #C38C4A",
"o. c #C98E4D",
"O. c #C0874E",
"+. c #C6904E",
"@. c #C9914F",
"#. c #C28E52",
"$. c #C59253",
"%. c #CC9553",
"&. c #CE9856",
"*. c #CF9A59",
"=. c #C6945B",
"-. c #D09957",
";. c #D19B59",
":. c #D09756",
">. c #C29561",
",. c #C79A63",
"<. c #C89077",
"1. c #4D788C",
"2. c #557E91",
"3. c #517D8F",
"4. c #5B8395",
"5. c #5C899B",
"6. c #568498",
"7. c #498094",
"8. c #648B9C",
"9. c #698D9C",
"0. c #618698",
"q. c #6D919D",
"w. c #72929F",
"e. c #5C8FA5",
"r. c #668EA1",
"t. c #6591A3",
"y. c #6C93A3",
"u. c #6A97AA",
"i. c #7395A3",
"p. c #7B99A5",
"a. c #749BAB",
"s. c #7B9CAA",
"d. c #7798A5",
"f. c #729EB1",
"g. c #7CA0AD",
"h. c #7CA3B3",
"j. c #79A6B8",
"k. c #6EA1B5",
"l. c #8F9A93",
"z. c #B79384",
"x. c #98A29E",
"c. c #839EAA",
"v. c #839DA6",
"b. c #84A2AD",
"n. c #8AA2AC",
"m. c #93A6AE",
"M. c #9AA5A5",
"N. c #84A5B3",
"B. c #8BA6B1",
"V. c #8DA9B4",
"C. c #8BADBB",
"Z. c #84AABA",
"A. c #92A7B1",
"S. c #93AAB4",
"D. c #9AACB5",
"F. c #93AEBA",
"G. c #9BAEB8",
"H. c #94B2BE",
"J. c #9CB2BC",
"K. c #9EB0B7",
"L. c #8CB1BF",
"P. c #A2ABA8",
"I. c #A3B3BC",
"U. c #AAB6BE",
"Y. c #ADB9BD",
"T. c #A9B4B5",
"R. c #B4BCBB",
"E. c #AEAEAC",
"W. c #C69785",
"Q. c #C99D8C",
"!. c #D8AA97",
"~. c #CFA690",
"^. c #D9B8A9",
"/. c #D0B4AA",
"(. c #E1B4A2",
"). c #B9C1BF",
"_. c #D3C3B7",
"`. c #E8C5B4",
"'. c #99B5C2",
"]. c #A4B7C0",
"[. c #A5BAC4",
"{. c #ADBBC2",
"}. c #ABBEC9",
"|. c #A6BBC7",
" X c #B2BEC4",
".X c #B2BFC8",
"XX c #9CC5DA",
"oX c #ACC1CB",
"OX c #B5C1C5",
"+X c #BAC3C4",
"@X c #B4C3CA",
"#X c #BBC5CC",
"$X c #BFC9CC",
"%X c #A8C6D7",
"&X c #BCCAD2",
"*X c #B6CAD6",
"=X c #BAD2DF",
"-X c #AACEE2",
";X c #ACD3E8",
":X c #B6D6E8",
">X c #9EC9E0",
",X c #C4CBCD",
"<X c #CACDCD",
"1X c #C3C8C7",
"2X c #C4CDD3",
"3X c #C9CFD3",
"4X c #C0CFDA",
"5X c #C5D0D5",
"6X c #CBD2D4",
"7X c #C4D2DB",
"8X c #CCD5DB",
"9X c #CED8DE",
"0X c #D2D5D4",
"qX c #D1D6DA",
"wX c #D4DADC",
"eX c #DBDDDC",
"rX c #D8DAD6",
"tX c #D8CFCA",
"yX c #E9CFC4",
"uX c #DBE0DE",
"iX c #E4E1DD",
"pX c #C7DBE7",
"aX c #D3DCE2",
"sX c #D9DEE2",
"dX c #DBE2E5",
"fX c #DCE5EA",
"gX c #D7E2E8",
"hX c #DCE9F2",
"jX c #CCE0ED",
"kX c #E3E5E5",
"lX c #E1E6EA",
"zX c #E3E9EC",
"xX c #EBECEB",
"cX c #E8EAE6",
"vX c #F2EEEB",
"bX c #F5F2ED",
"nX c #EAEFF2",
"mX c #E2ECF3",
"MX c #ECF1F3",
"NX c #F3F4F5",
"BX c #FAF9F8",
"VX c #E0DFE1",
/* pixels */
"%.%.*.%.-.;.@.Z X.o.X.o.o.X.X.Z ..X. .! ! C m X...! ! V X.X.X.X.$.+.+.%.%.+.X.C ..! ~ ! X.~ N M  ...X.+.! N X.!  .! X...! ..N M ",
"%.%.&.%.-.*.+.Z ,.=.$.=.=.#.#.^ #.#.X.#.^ / / =.=.+.O./ $.^ ^ ^ #.X.#.#.X.#.^ I ^ ^ ^ ~ ^ ^ B m ~ ^ _ $./ I ^ ! ! ! ..X.! ..V M ",
"%.%.;.&.-.;.X.Z ] ; h s s s s s s s s s s s s s f f j h f f h h h h h h h k k k k k k k l l k h h k k l l j k ~ ! ! X. .! X.C M ",
"%.%.;.&.&.;.X.Z ' + O o o o o o o o o o o o o o o o o o o : : : : o = : : : : : : : : : : = o o O o = = = @ U ~ ! ! X.~ ! X.C N ",
"%.%.;.-.&.;. .! X.# + o O X X X # $ $ $ $ # # # # # X X # X o X X $ # X $ # X X X X # # X # # $ $ # X X + # ^ ~ ! ! ....! ! W M ",
"o.%.-.:.%.;. .! ! k f 0 2 e u u u i u u i i u u u i i u i s r 5 5 5 i s u u s s s s s s s h s s s i 0 0 y e #.! ! ! ....! ..! M ",
"X.@.;.%.%.;. .! #.s s 7 s j s h h h s s s h h h h h h h j k s u u i j j j j j k k k h h j j j h h z d 7 h s _ ! ! ! X.! ! ..! v ",
"~ %.*.%.%.;.! Z =.> r z h h t y y y y y y y y e e y e 4 3 3 e < = , 3 4 4 4 e r t t t t t t t t i s s j s r / ! ! ! X.! ! X.! M ",
"! %.&.%.%.-. .Z X.F o : : : 7 J G G G G G f G G G G F f d f d d d d d d d d f d f f g g g g f u 7 > 1 1 1 u ^ ! ! ! ~ ! ! X.! M ",
"! %.%.%.&.;. .Z X._ X o $ R.+X1X,X<X,X6X@X'.#X<X<X<X<X{.a.y.y.s.A.Y.+X XOXOX X+XOX1X0X6X<X<X,X1X1XR.: X X ) ~ ! ! ! ..! ! X.! N ",
"! @.%.%.%.-. .Z X.) r r 5 ,X6X5X5X6XqXwX|.|.&XoX2XwX8X#Xh.u.h.C.Z.N.OX#X#X@XOX$X,X,XwXeX6X,X6X6X3X,Xs 4 4 ' ~ ! ! ! ! ! ! X.! N ",
"! o.%.%.%.*.X.V X.( e r 5 1XqXwX8XwXwX5X*XoXj.k.C.&XeX&Xh.N.h.a.u.N.V.[.2X@X.X2X3X2XwXwX6X,X6X8X6X<Xs e e ' ~ ~ ~ ! ~ ! ! X.! M ",
"! o.%.%.%.&...V X.( u e 5 <XsXdXkXdXoX*XdX'.k.j.C.N.C.2X}.f.u.h.B.[.N.V.#X#X@X}.@XwX8XwX6X2X6XwXeX0Xr , e ` ~ ~ ! ! ! ! ! ~ ! M ",
"! o.%.%.%.%.X.V X.) u e 5 rXkXdXdX9X*X7XaX'.k.j.'.Z.u.F.'.u.F.}.{.@X}.S.I.OXU.V.F.qXsX6X2X6XqX2X@X<Xe - 4 ` ~ ~ ! ! ! ! ! ..W n ",
"! o.%.%.%.&.X.V X.( u e u eXcXfXaX9X8XsXgXaX'.j.Z.C.u.e.N.'.$X$X#X#X{. XI.b.a.{.S.'.zX6X2X6X#XH.C.#X4 @ 4 ) ~ ~ ! W ~ ! Z ~ W n ",
"! o.%.%.%.%.X.V X.) u e i eXlXdXdXfX9XfXlXfX*X'.C.'.h.t.h.].[.@X3X@XJ.S.S.F.B.J.y.s.3X8X2X$X#X[.h.{.i - e ) ~ ~ ! ! ! ! ! ~ Z n ",
"! X.%.%.%.%.X.V X.) r r s wXaXwXaXdXwXdXaX7X7X*X}.'.h.t.h.N.B.].F. Xn.y.B.J.{.F.t.t.J.@X#X&X8X[.a.{.s < 4 ( ~ ! ! ! ~ ! W ~ W n ",
"! X.%.%.%.%.X.V  .( u r s ,X9X9XaX9XaXxXaX9XaXsX&Xj.u.u.e.F.}.h.a.I.G.s.b.].I.I.S.N.J.].].@X#XoXJ.+Xh r 4 ] ! ! ! ! ! ! ! ! Z n ",
"! X.%.%.%.%.X.V X.( u r s ,XwX8XaXwX9XdXdX*X9X9X2XZ.t.u.t.J.[.s.B.S.{.G.s.J.S.B.I.J.I.I.V.N.s.N.].,Xh e 4 ( C ~ ! ! ~ ! ! ! C n ",
"! X.%.%.%.%. .V ..( u r s ,XwXdXfXaX9X7XaX7X7XdXaX'.e.e.a.I..XI.I.D.I.U.A.s.b.B.V.].I.V.y.5.t.5.V.<Xk e 3 ) C ~ ! ! ! ! W ! V v ",
"! X.%.%.%.%. .V X.( u r s ,X8XlXNXlXdX9XaXcX*X9XlX&XN.a.C..X2X$XI.G.I.I.K.c.d.b.i.s.S.s.r.y.y.r.I.0Xj r 4 ` B ~ ! ! ! ! C ! C n ",
"! o.%.%.%.%...V X.) u t s 6XdXNXnXfXlXdXaXcX*X&XdXsXwX6X2X2X$X$XG.D.S.G.I.A.a.y.5.3.y.b.U.c.6.8.[.eXk t 4 ' M ! ~ ! ! ! Z ! V c ",
"! +.%.%.%.%.X.V ..) r u s wXzXxXlXaXdXdXaXaXaXfXdX9XqXkXsX$XS.y.d.I.B.A.U.I.b.r.s.S.b.b.{.V.5.r.b. Xk r 3 >.m ! ! ! ! ! C ! V v ",
"! o.%.%.%.%.X.V ..) r t s uXfXlXzXdXaXaXfXdX9XfXlX7X2X6X6X].u.u.s.i.i.A. XU.b.9.D.OXB.5.s..Xa.y.n.c.l r < >.B C ! ! ! ! Z ! C b ",
"! X.%.%.%.%.! C X.) r t s wXaXfXNXnXaXwXdXfX9X6XaXaX2X}.@X@XN.s.V.i.0.i.I.#XS.i.D.G.c.6.y.B.y.A.U.K.k r 3 >.C B ! W ! ! Z ! C b ",
"! X.%.&.%.%.! C X.) r t s wXaXaXzXzXgXaXwXaXsX9X2XwXdX#X&XaX$X{.q.I. Xc.A.,XI.c.I.A.8.s.V.y.b.].].K.l r 3 >.! N ! ! ! ! Z ! C b ",
"X.o.%.&.%.%.! ! X.) r i i uXdXgXgXdXfXdXwXaXlXdX2XaXlX2X6XdX2X@X3.s.+XI.I.#XU.D.U.D.s.A.A.J.{.G.n.m.l r < >...m ! ! ! ! ! ! Q c ",
"X.%.%.*.%.%.! ! X.) u t u wXzXzXfXlXzXlXdXdXcXdXwXsXwX8X8XwXwX@X4.9.p.p.S.G.D.U.{.I.I.n.B..X.Xb.5.q.k r 2 >.X.M C ! ! ! C ! C b ",
"$.%.%.*.%.%.! Z X.) i t u dXMXMXzXzXfXdXdXsXaX9X8X8X5X8XdX8XsX{.V..X4.3.4.9.i.I.{.{.I.I.I.I..XB.t.8.j r < >.X.N B ! ! ! ! ! Q b ",
"$.%.%.;.%.%.o.Z ..) u t i kXnXnXcXfXdXaX8X2X2X2X&X#X#X&XdXdXwX@XI.#X0.1.0.9.0.A..X{.{.I.U.{.I.A.s.q.j r , >.X.N B ! ! ! ! ! ! m ",
"%.%.&.&.%.%.%.V ! ) u t i kXfXlXfXaXsXwX2X@X@X&X@X}.OX#XwXqXqX8X.XD.w.2.4.n.p.c.{..X{.U.{.I.n.S.d.d.j r < >.X.V M ! ! / ! ! ! m ",
"X.&.%.*.%.%.%.! ! ) u i i xXzXfXfXaXaXaX2XoXoX@X#X}.@X2XwX8X#XwXqX6XI.9.i.v.n.A.U. XOXOX{.b.p.S.d.9.k r 2 >.X.B M ! ! ! ! ! ! b ",
"! &.%.*.:.%.%.! ! ) u t i xXnXfXdXaXaXaX9X&XoX&X3X@X}.8XsXqX@XI.@X6X,XS.Y.G.m.Y. X+X#X6X$Xc.i.v.y.9.j u 2 >.X.M C ! ! ! ! ! ! m ",
"/ %.&.*.%.%.%.! ..) u i i xXxXdXdXdXaXaXaX9X2X9XwX6X2XwXdX5X.Xb..X3X,XG.+X XD.Y.+XG.{.0X3XI.p.p.y.i.h u < >.X.M C ! ! ! ! ! ! M ",
"^ %.%.*.%.%.%.! ! ) u u u bXMXnXgXaXgXdXdXaXsXdXfXaX@X8XaXwX2X2XeX2XA.D.#X XA.I.I.n.v.I.,X$XI.c.y.v.h r 2 >.X.M C ! ! ! ! ! ! M ",
"~ %.%.*.%.%.%.X.C ) u r u bXNXBXNXaXfXnXnXzXzXaXaXaX[.2XwXwX.X[.@XG.q.c. XI.A.m.D.n.4.v. X{.{.A.s.p.h r 3 >.X.m W ! ! ! ! ! ! n ",
"X.@.%.*.%.%.%.o.C ( i u u bXNXNXNXmXnXhXnXnXfXfXgXzX9X[.|.N.y.b.n.9.n.+X{.m.m.D.m.v.0.i.p.c.S.B.y.p.h r 4 >.X.m W ! ! ! C ! / c ",
"X.o.%.*.%.%.%.%.! ( s t u bXBXhXjXNXNXfXmXnXzXlXzXgX9X'.N.t.5.y.i.0.0.S.Y.D.G.Y.D.d.0.4.6.s.S.i.B.S.h r 4 >.! m ! ! ! ! / ! Q c ",
"X.o.%.*.%.%.%.%.! ] i e e bXBXmXhXnXhXhXhXnXgXfXfX7X|.'.a.y.8.4.2.2.1.4.A.Y. XI.p.9.p.0.4.i.S.S.+Xm.h u 3 >.~ N ! ! ! ! C ! V b ",
"+.X.%.%.%.%.%.$.X./ i , 3 vXBXmXpX:X:XjXjXpXgXgXsX*X[.C.a.g.y.5.4.2.0.r.B.OX+Xv.2.2.9.q.0.5.s.S.G.c.h r 3 >.~ m ! ! ! ! C ! N b ",
"o.o.%.%.%.%.%.+...P s - , vXBXpX;X;X;X;X-X:XfX7X4X&X|.C.h.s.y.8.0.0.9.s.I.OXY.m.2.1.1.4.8.8.y.s.a.y.h r 4 >.! N ! ! ! ! C ! M b ",
"o.$.%.%.%.&.%.+.X.P s , 2 xXjX;X:X-XXXXX%X%XpXaX%X|.H.H.N.a.i.y.9.i.y.w.I.#X XY.c.0.3.3.4.8.y.a.a.a.h r e >.Q B ! ! ! ! C ! v c ",
"o.+.%.%.%.*.%.o.X.P s e 5 :X-X;X-X-X-XXX=XXXXX7X%X'.[.[.F.s.i.d.i.i.c.d.U.6X+XY.A.U.S.1.6.8.t.y.J.6Xh r y >.B C ~ ! ! ! C ! c c ",
"X.X.%.%.%.&.%.@.o.P s u u pX;X-XXXm.E./.W.T w w oXoX&X2XOXV.y.9.9.p.c.].qXqX,XI.c.{.Y.9.3.5.8.y.@XbXh r e >.N C ! ! ! ! C ! c c ",
"X.X.%.%.%.&.%.%.o.P s r u =X>X%Xm.E.yX`.(.~.!.U w L.H.@X3XJ.d.r.9.A.A.2XVXqX1XI.b.p.p.5.3.5.t.5.H.vXs r e >.M / ! ! ! ! Z ! x c ",
"X.X.%.%.%.;.%.o.%.P s r u %X%XM./.yX`.`.!.Q.<.<.<.l.Z.H.#X@Xs.i.y.s.$XkXeX0X1X XB.i.p.a.r.5.t.5.N.iXs t e >.m ! ! ! ~ ! Z Q x c ",
"o.X.%.%.%.*.%.o.X.P s r u *XR.T T T Q./.!.<.<.[ [ } Z.Z.V.V.a.a.N.I.6XkXeX0X,XY.n.@XsXwXqXF.7.u.5X0Xs t e ' m ! ! ! ! ! W I x v ",
"X.X.%.%.%.*.%.%.I ] s u u &X/.^.z.T q 0 { [ <.[ Y P n.h.h.N.g.u.6XvXkXwXeXrX XOX8XkXxXqXwXqXF.t.7XiXs r e ' M ! ! ! ~ ! W C c v ",
"o.o.%.%.%.;.%.o.C ( s i i qX/.yX/.z.& 0 8 [ { Y Y P M.|.V.J.N.N.kXxXeX6XwXrX+X#XqXqXeXwX6X6X3Xy.e.6Xi i r ' N ! ! ! ~ ! ! Q c v ",
"o.o.%.%.%.*.%. .Z ( 5 3 5 iXtXyX/.R R L D   % 6 Y U U.qX}.V.a.&XBXeXqXqXqX2X$X+X$X6X6XqX6X6X6XF.6..X< 4 , ` M ! ! W ~ ! I ! c c ",
"o.o.%.%.%.*.%.! Z ) 7 2 2 iXtX`.W.D { z.[   . & U R '.[.}.J.s.8XNXeXqXwXwXqX6X$X,X6X,X,X,X,X,X#XU.+X> 5 1 ` N ~ ! W ! ! ! ! c v ",
"o.o.%.%.%.*.&.I ! _ l i u kXyX!.W.!.W.<.p * . 0 0 | '.}.].F.a.&XNXeXwXqXrXeX<X$X#X#X+X+X#X1X+X+X,XR.e s h ' N ~ ! ! ! ! ! ! c v ",
"@.o.%.%.%.&.%.Z  .) s 2 2 eX`.~.L ~.W.6 * * s F q T.}.&X[.h.N.kXxXdXeXqXeXeX,X#X+X+X+X+X+X+X+XY.+XR.5 3 5 ` B ~ ! ! ! ! ! ! c v ",
"%.%.:.%.%.;.%.C  ._ k 5 d tX`.!.z.z.D p > > F U } 6XoX[.F.h.[.kXdXcXkXwXuXrX<X,X+XR.R.+X+X).Y.R.Y.E.i e t ` B ~ ! ! ! ! ! ~ n v ",
"%.%.%.%.&.*.%.C  .( 5 1 L _.^.!.{ E 6 % > p } z.OX5X|.@XH.h.].8XxXxXkXeXeXrX<X,X).T.T.R.).R.T.T.P.M.5 1 , ) C ! ! ! ..! ! ..n A ",
"%.@.&.%.%.;.%.C ! ) i p } ^.Q.!.R 6 a e p R _.qXF.&X6X2X@Xa.Z.wXbXcXdXrX0X0X<X1X+XT.P.T.T.T.P.M.M.x.u 3 3 ` C ! ! W X.! ! ..m v ",
"%.%.;.%.%.;.%.C  ._ h H ~.^.~.F F a a H E.6XcX6XoXeXeXI.OX,X<XiXiXeX0X0X<X_.R.).R.E.P.M.P.P.x.x.l.l.k f s ` C ~ ! ! ..! ! X.M v ",
"%.@.;.-.%.;.%.C  .] > 1 Q.!.~.H $ 7 F U g g f d d g g d d d f f d f d f d d d d d d f f f d d i u 7 u u > U C ~ ! ! .. .! ..M v ",
"%.%.;.-.&.;.%.V  .K O 8 L Q.{ F e e G 4 < < < < < < < < 3 3 , , , , > - , , , , - - - > < < , , 1 1 7 7 @ F / ~ ! W X...! ! M M ",
"_ %.;.&.*.;.%.C  .` S F 8 ] D , e i f h h h h h h s s s s s s h h h s i s s s s s i r r i s s s s h F 0 y K ! X.~ ! X.X. ...N A ",
"%.%.;.-.&.-.%.C X.U y e 4 4 > O o : 3 r t i u r r e r r e 3 , 3 e e r r e r r r 4 e e 3 4 3 < 3 3 3 , ; 3 k Q ..! ! o.X. .! M v ",
"%.%.;.-.-.;.%.Z X.] s J J J l h k k k l G l k f G l k h l G G G K K K K J J J J J G K K K K g g G K J J s k ! ! ! ! X.X.W ..M A ",
"%.%.;.-.;.;.@.Z X.X.X.+.%...X.Z ~ ..! ! ! ! N C X.! ! V ..X.X.X.$.o.+.%.o.o.! ! ! ! ! ..~ ~ N M ~ X.X.+.X.N ~ ~  .! X...! ..M M ",
"%.%.;.-.;.;.@.Z X.X.X.o.@.....Z X.X.! ! ! ! m ! ..! ! V X.X.X.X.+.+.o.%.o.o.! Z ..! ! ~ ~ ~ N M X...X.+.~ M ~ ! ! ! X...! ..M M "
};
